<svg xmlns="http://www.w3.org/2000/svg" xmlns:xlink="http://www.w3.org/1999/xlink" width="100" zoomAndPan="magnify" viewBox="0 0 75 74.999997" height="100" preserveAspectRatio="xMidYMid meet" version="1.0"><path fill="#000000" d="M 30.292969 39.269531 C 29.371094 38.800781 28.363281 38.476562 27.304688 38.320312 C 26.828125 38.25 26.347656 38.210938 25.855469 38.210938 C 20.417969 38.210938 16 42.632812 16 48.0625 C 16 53.496094 20.421875 57.917969 25.855469 57.917969 C 29.765625 57.917969 33.148438 55.628906 34.742188 52.316406 C 35.167969 51.429688 35.46875 50.464844 35.609375 49.449219 C 35.675781 48.996094 35.707031 48.535156 35.707031 48.0625 C 35.707031 44.230469 33.503906 40.894531 30.292969 39.269531 Z M 33.25 49.222656 C 33.25 49.496094 33.035156 49.71875 32.761719 49.734375 L 30.8125 49.832031 C 30.75 50 30.683594 50.164062 30.609375 50.324219 L 31.917969 51.773438 C 32.101562 51.976562 32.09375 52.285156 31.902344 52.480469 L 30.265625 54.113281 C 30.074219 54.308594 29.761719 54.3125 29.5625 54.132812 L 28.113281 52.820312 C 27.953125 52.894531 27.785156 52.964844 27.617188 53.023438 L 27.523438 54.976562 C 27.507812 55.25 27.28125 55.464844 27.007812 55.464844 L 24.695312 55.464844 C 24.421875 55.464844 24.199219 55.25 24.183594 54.976562 L 24.085938 53.023438 C 23.917969 52.964844 23.753906 52.894531 23.589844 52.820312 L 22.144531 54.132812 C 21.941406 54.3125 21.628906 54.304688 21.4375 54.113281 L 19.800781 52.480469 C 19.605469 52.285156 19.601562 51.976562 19.785156 51.773438 L 21.097656 50.324219 C 21.019531 50.164062 20.949219 49.996094 20.894531 49.832031 L 18.941406 49.734375 C 18.667969 49.722656 18.453125 49.496094 18.453125 49.222656 L 18.453125 46.910156 C 18.453125 46.632812 18.667969 46.410156 18.941406 46.394531 L 20.890625 46.300781 C 20.949219 46.132812 21.019531 45.96875 21.097656 45.804688 L 19.785156 44.355469 C 19.601562 44.15625 19.609375 43.84375 19.800781 43.652344 L 21.4375 42.015625 C 21.628906 41.824219 21.941406 41.816406 22.144531 42 L 23.589844 43.3125 C 23.753906 43.234375 23.917969 43.167969 24.085938 43.105469 L 24.183594 41.15625 C 24.195312 40.882812 24.421875 40.667969 24.695312 40.667969 L 27.007812 40.667969 C 27.28125 40.667969 27.507812 40.882812 27.523438 41.15625 L 27.617188 43.105469 C 27.785156 43.167969 27.953125 43.234375 28.113281 43.3125 L 29.5625 42 C 29.761719 41.816406 30.074219 41.824219 30.265625 42.015625 L 31.902344 43.652344 C 32.09375 43.847656 32.101562 44.15625 31.917969 44.355469 L 30.609375 45.804688 C 30.683594 45.96875 30.753906 46.132812 30.8125 46.300781 L 32.761719 46.394531 C 33.035156 46.40625 33.25 46.632812 33.25 46.910156 Z M 33.25 49.222656 " fill-opacity="1" fill-rule="nonzero"/><path fill="#000000" d="M 29.9375 49.199219 C 29.996094 48.984375 30.183594 48.835938 30.40625 48.824219 L 32.226562 48.734375 L 32.226562 47.394531 L 30.40625 47.304688 C 30.183594 47.292969 29.996094 47.144531 29.9375 46.929688 C 29.84375 46.597656 29.710938 46.277344 29.542969 45.976562 C 29.433594 45.785156 29.460938 45.542969 29.609375 45.382812 L 30.832031 44.03125 L 29.886719 43.085938 L 28.535156 44.308594 C 28.371094 44.457031 28.132812 44.484375 27.9375 44.375 C 27.636719 44.207031 27.320312 44.074219 26.988281 43.980469 C 26.773438 43.921875 26.625 43.734375 26.613281 43.511719 L 26.523438 41.691406 L 25.183594 41.691406 L 25.09375 43.511719 C 25.082031 43.734375 24.933594 43.921875 24.71875 43.980469 C 24.390625 44.070312 24.070312 44.207031 23.765625 44.375 C 23.574219 44.484375 23.335938 44.457031 23.171875 44.308594 L 21.820312 43.085938 L 20.875 44.03125 L 22.097656 45.382812 C 22.246094 45.542969 22.273438 45.785156 22.164062 45.976562 C 21.996094 46.277344 21.863281 46.597656 21.769531 46.929688 C 21.710938 47.144531 21.523438 47.292969 21.300781 47.304688 L 19.480469 47.394531 L 19.480469 48.734375 L 21.300781 48.824219 C 21.523438 48.835938 21.710938 48.984375 21.769531 49.199219 C 21.863281 49.53125 21.996094 49.851562 22.164062 50.152344 C 22.273438 50.34375 22.246094 50.582031 22.097656 50.746094 L 20.875 52.097656 L 21.820312 53.042969 L 23.171875 51.820312 C 23.335938 51.671875 23.574219 51.644531 23.765625 51.753906 C 24.070312 51.925781 24.390625 52.054688 24.71875 52.148438 C 24.933594 52.207031 25.082031 52.394531 25.09375 52.617188 L 25.183594 54.4375 L 26.523438 54.4375 L 26.613281 52.617188 C 26.625 52.398438 26.773438 52.207031 26.988281 52.148438 C 27.320312 52.058594 27.636719 51.921875 27.9375 51.753906 C 28.132812 51.644531 28.371094 51.671875 28.535156 51.820312 L 29.886719 53.042969 L 30.832031 52.097656 L 29.609375 50.746094 C 29.460938 50.582031 29.433594 50.34375 29.542969 50.152344 C 29.710938 49.851562 29.84375 49.53125 29.9375 49.199219 Z M 25.855469 51.046875 C 24.210938 51.046875 22.871094 49.710938 22.871094 48.066406 C 22.871094 46.421875 24.210938 45.085938 25.855469 45.085938 C 27.5 45.085938 28.835938 46.421875 28.835938 48.066406 C 28.835938 49.710938 27.496094 51.046875 25.855469 51.046875 Z M 25.855469 51.046875 " fill-opacity="1" fill-rule="nonzero"/><path fill="#000000" d="M 27.8125 48.0625 C 27.8125 49.144531 26.933594 50.023438 25.855469 50.023438 C 24.777344 50.023438 23.894531 49.144531 23.894531 48.0625 C 23.894531 46.984375 24.773438 46.105469 25.855469 46.105469 C 26.933594 46.109375 27.8125 46.988281 27.8125 48.0625 Z M 27.8125 48.0625 " fill-opacity="1" fill-rule="nonzero"/><path fill="#000000" d="M 59 29.082031 C 58.785156 30.742188 58.011719 35.851562 56.039062 41.179688 C 53.871094 47.046875 49.769531 54.394531 42.535156 56.191406 C 40.09375 55.585938 37.839844 54.308594 35.832031 52.394531 C 36.082031 51.824219 36.28125 51.226562 36.429688 50.609375 C 38.222656 52.480469 40.21875 53.757812 42.390625 54.402344 C 42.4375 54.417969 42.484375 54.425781 42.535156 54.425781 C 42.585938 54.425781 42.636719 54.417969 42.683594 54.402344 C 44.003906 54.011719 45.265625 53.382812 46.441406 52.535156 C 48.515625 51.046875 50.390625 48.835938 52.003906 45.972656 C 53.816406 42.769531 55.269531 38.847656 56.328125 34.320312 C 56.609375 33.117188 56.832031 32.039062 57.015625 31.027344 C 57.058594 30.765625 56.894531 30.507812 56.636719 30.441406 C 52.585938 29.410156 50.058594 26.132812 48.65625 23.566406 C 48.042969 22.449219 47.472656 21.15625 47.007812 19.824219 C 46.917969 19.570312 46.648438 19.429688 46.386719 19.5 C 43.976562 20.15625 41.09375 20.15625 38.683594 19.5 C 38.425781 19.429688 38.152344 19.570312 38.066406 19.824219 C 37.597656 21.152344 37.03125 22.445312 36.417969 23.566406 C 35.011719 26.132812 32.488281 29.410156 28.4375 30.441406 C 28.175781 30.507812 28.011719 30.765625 28.058594 31.027344 C 28.238281 32.039062 28.460938 33.113281 28.742188 34.316406 C 29.03125 35.546875 29.347656 36.742188 29.695312 37.886719 C 29.085938 37.65625 28.449219 37.476562 27.789062 37.359375 C 26.714844 33.566406 26.230469 30.339844 26.070312 29.082031 C 29.675781 28.964844 32.734375 26.792969 34.9375 22.757812 C 36.183594 20.480469 36.839844 18.207031 37.117188 17.082031 C 40.054688 18.71875 45.019531 18.71875 47.957031 17.082031 C 48.234375 18.210938 48.886719 20.480469 50.132812 22.757812 C 52.335938 26.792969 55.390625 28.96875 59 29.082031 Z M 59 29.082031 " fill-opacity="1" fill-rule="nonzero"/><path fill="#000000" d="M 47.753906 24.0625 C 47.183594 23.015625 46.648438 21.832031 46.195312 20.609375 C 43.84375 21.164062 41.226562 21.164062 38.871094 20.609375 C 38.417969 21.832031 37.882812 23.015625 37.316406 24.0625 C 35.257812 27.824219 32.441406 30.320312 29.152344 31.3125 C 29.3125 32.167969 29.503906 33.082031 29.738281 34.085938 C 30.09375 35.605469 30.5 37.074219 30.949219 38.457031 C 34.386719 40.289062 36.730469 43.90625 36.730469 48.066406 C 36.730469 48.5 36.707031 48.925781 36.65625 49.34375 C 38.414062 51.347656 40.386719 52.707031 42.535156 53.378906 C 43.691406 53.015625 44.804688 52.453125 45.84375 51.707031 C 47.792969 50.304688 49.566406 48.207031 51.109375 45.472656 C 52.871094 42.355469 54.289062 38.523438 55.328125 34.089844 C 55.5625 33.085938 55.757812 32.171875 55.917969 31.3125 C 52.628906 30.320312 49.8125 27.824219 47.753906 24.0625 Z M 51.628906 32.71875 L 40.019531 44.332031 C 39.917969 44.429688 39.785156 44.480469 39.65625 44.480469 C 39.523438 44.480469 39.394531 44.433594 39.292969 44.332031 L 33.4375 38.476562 C 33.238281 38.277344 33.238281 37.953125 33.4375 37.75 L 35.851562 35.339844 C 35.945312 35.242188 36.078125 35.1875 36.210938 35.1875 C 36.347656 35.1875 36.480469 35.242188 36.574219 35.339844 L 39.65625 38.417969 L 48.492188 29.582031 C 48.589844 29.484375 48.71875 29.429688 48.855469 29.429688 C 48.992188 29.429688 49.121094 29.484375 49.21875 29.582031 L 51.628906 31.992188 C 51.828125 32.195312 51.828125 32.519531 51.628906 32.71875 Z M 51.628906 32.71875 " fill-opacity="1" fill-rule="nonzero"/><path fill="#000000" d="M 50.542969 32.355469 L 39.65625 43.242188 L 34.523438 38.113281 L 36.210938 36.425781 L 39.292969 39.507812 C 39.386719 39.601562 39.519531 39.65625 39.65625 39.65625 C 39.792969 39.65625 39.921875 39.601562 40.019531 39.507812 L 48.855469 30.667969 Z M 50.542969 32.355469 " fill-opacity="1" fill-rule="nonzero"/><path fill="#020202" d="M 37.5 75 C 32.4375 75 27.527344 74.007812 22.902344 72.054688 C 18.4375 70.164062 14.425781 67.460938 10.980469 64.019531 C 7.539062 60.574219 4.835938 56.5625 2.945312 52.097656 C 0.992188 47.472656 0 42.5625 0 37.5 C 0 32.4375 0.992188 27.527344 2.945312 22.902344 C 4.835938 18.4375 7.539062 14.425781 10.980469 10.980469 C 14.425781 7.539062 18.4375 4.835938 22.902344 2.945312 C 27.527344 0.992188 32.4375 0 37.5 0 C 42.5625 0 47.472656 0.992188 52.097656 2.945312 C 56.5625 4.835938 60.574219 7.539062 64.019531 10.980469 C 67.460938 14.425781 70.164062 18.4375 72.054688 22.902344 C 74.007812 27.527344 75 32.4375 75 37.5 C 75 42.5625 74.007812 47.472656 72.054688 52.097656 C 70.164062 56.5625 67.460938 60.574219 64.019531 64.019531 C 60.574219 67.460938 56.5625 70.164062 52.097656 72.054688 C 47.472656 74.007812 42.5625 75 37.5 75 Z M 37.5 0.988281 C 17.367188 0.988281 0.988281 17.367188 0.988281 37.5 C 0.988281 57.632812 17.367188 74.011719 37.5 74.011719 C 57.632812 74.011719 74.011719 57.632812 74.011719 37.5 C 74.011719 17.367188 57.632812 0.988281 37.5 0.988281 Z M 37.5 0.988281 " fill-opacity="1" fill-rule="nonzero"/></svg>