<svg xmlns="http://www.w3.org/2000/svg" xmlns:xlink="http://www.w3.org/1999/xlink" width="100" zoomAndPan="magnify" viewBox="0 0 75 74.999997" height="100" preserveAspectRatio="xMidYMid meet" version="1.0"><defs><clipPath id="0dc832e25b"><path d="M 0 2.28125 L 75 2.28125 L 75 72.78125 L 0 72.78125 Z M 0 2.28125 " clip-rule="nonzero"/></clipPath></defs><g clip-path="url(#0dc832e25b)"><path fill="#000000" d="M 40.597656 49.988281 C 53.738281 49.988281 64.429688 39.285156 64.429688 26.132812 C 64.429688 12.980469 53.738281 2.277344 40.597656 2.277344 C 27.460938 2.277344 16.769531 12.980469 16.769531 26.132812 C 16.769531 39.285156 27.460938 49.988281 40.597656 49.988281 Z M 40.597656 4.40625 C 52.566406 4.40625 62.304688 14.152344 62.304688 26.132812 C 62.304688 38.113281 52.566406 47.859375 40.597656 47.859375 C 28.632812 47.859375 18.894531 38.113281 18.894531 26.132812 C 18.894531 14.152344 28.632812 4.40625 40.597656 4.40625 Z M 40.597656 44.375 C 50.648438 44.375 58.824219 36.191406 58.824219 26.132812 C 58.824219 16.074219 50.648438 7.890625 40.597656 7.890625 C 30.550781 7.890625 22.375 16.074219 22.375 26.132812 C 22.375 36.191406 30.550781 44.375 40.597656 44.375 Z M 40.597656 10.019531 C 49.476562 10.019531 56.699219 17.246094 56.699219 26.132812 C 56.699219 35.019531 49.476562 42.25 40.597656 42.25 C 31.722656 42.25 24.5 35.019531 24.5 26.132812 C 24.5 17.246094 31.722656 10.019531 40.597656 10.019531 Z M 34.921875 22.085938 C 34.921875 19.5625 36.90625 17.453125 39.519531 16.992188 L 39.484375 15.441406 C 39.46875 14.855469 39.933594 14.367188 40.519531 14.355469 C 41.105469 14.34375 41.59375 14.804688 41.605469 15.390625 L 41.644531 17.023438 C 43.050781 17.324219 44.832031 18.140625 45.582031 19.28125 C 45.902344 19.773438 45.765625 20.433594 45.277344 20.753906 C 44.785156 21.078125 44.125 20.941406 43.804688 20.449219 C 43.386719 19.808594 41.617188 19.023438 40.597656 19.023438 C 38.640625 19.023438 37.046875 20.398438 37.046875 22.085938 C 37.046875 23.773438 38.640625 25.144531 40.597656 25.144531 C 43.730469 25.144531 46.277344 27.472656 46.277344 30.332031 C 46.277344 32.855469 44.296875 34.964844 41.683594 35.425781 L 41.714844 36.824219 C 41.730469 37.410156 41.265625 37.898438 40.679688 37.910156 C 40.671875 37.914062 40.664062 37.914062 40.652344 37.914062 C 40.078125 37.914062 39.605469 37.453125 39.59375 36.875 L 39.558594 35.441406 C 37.96875 35.191406 36.96875 34.363281 36.011719 33.457031 C 35.582031 33.054688 35.5625 32.382812 35.964844 31.957031 C 36.367188 31.527344 37.042969 31.507812 37.46875 31.910156 C 38.574219 32.957031 39.253906 33.394531 40.597656 33.394531 C 42.558594 33.394531 44.152344 32.019531 44.152344 30.332031 C 44.152344 28.644531 42.558594 27.273438 40.597656 27.273438 C 37.46875 27.273438 34.921875 24.945312 34.921875 22.085938 Z M 69.621094 41.921875 C 66.660156 41.921875 64.25 44.332031 64.25 47.296875 C 64.25 48.050781 64.410156 48.769531 64.691406 49.421875 L 44.324219 63.535156 C 43.359375 62.605469 42.046875 62.03125 40.605469 62.03125 C 39.183594 62.03125 37.890625 62.589844 36.929688 63.492188 L 24.804688 54.878906 C 25.101562 54.210938 25.269531 53.472656 25.269531 52.695312 C 25.269531 49.734375 22.859375 47.320312 19.898438 47.320312 C 16.9375 47.320312 14.53125 49.734375 14.53125 52.695312 C 14.53125 53.5625 14.738281 54.382812 15.101562 55.105469 L 8.863281 59.996094 C 7.925781 59.191406 6.707031 58.703125 5.378906 58.703125 C 2.417969 58.703125 0.0078125 61.113281 0.0078125 64.078125 C 0.0078125 67.042969 2.417969 69.453125 5.378906 69.453125 C 8.339844 69.453125 10.75 67.042969 10.75 64.078125 C 10.75 63.210938 10.542969 62.394531 10.175781 61.667969 L 16.414062 56.78125 C 17.351562 57.585938 18.570312 58.070312 19.898438 58.070312 C 21.320312 58.070312 22.613281 57.515625 23.574219 56.613281 L 35.699219 65.226562 C 35.402344 65.894531 35.234375 66.632812 35.234375 67.410156 C 35.234375 70.371094 37.644531 72.785156 40.605469 72.785156 C 43.566406 72.785156 45.972656 70.371094 45.972656 67.410156 C 45.972656 66.652344 45.816406 65.9375 45.535156 65.285156 L 65.902344 51.167969 C 66.867188 52.097656 68.179688 52.671875 69.621094 52.671875 C 72.582031 52.671875 74.992188 50.261719 74.992188 47.296875 C 74.992188 44.332031 72.582031 41.921875 69.621094 41.921875 Z M 5.378906 67.324219 C 3.589844 67.324219 2.132812 65.867188 2.132812 64.078125 C 2.132812 62.285156 3.589844 60.828125 5.378906 60.828125 C 7.167969 60.828125 8.625 62.285156 8.625 64.078125 C 8.625 65.867188 7.167969 67.324219 5.378906 67.324219 Z M 19.898438 55.945312 C 18.109375 55.945312 16.65625 54.488281 16.65625 52.695312 C 16.65625 50.90625 18.109375 49.449219 19.898438 49.449219 C 21.6875 49.449219 23.144531 50.90625 23.144531 52.695312 C 23.144531 54.488281 21.6875 55.945312 19.898438 55.945312 Z M 40.605469 70.65625 C 38.816406 70.65625 37.359375 69.199219 37.359375 67.410156 C 37.359375 65.617188 38.816406 64.160156 40.605469 64.160156 C 42.394531 64.160156 43.847656 65.617188 43.847656 67.410156 C 43.847656 69.199219 42.394531 70.65625 40.605469 70.65625 Z M 69.621094 50.546875 C 67.832031 50.546875 66.375 49.089844 66.375 47.296875 C 66.375 45.507812 67.832031 44.046875 69.621094 44.046875 C 71.410156 44.046875 72.867188 45.507812 72.867188 47.296875 C 72.867188 49.089844 71.410156 50.546875 69.621094 50.546875 Z M 69.621094 50.546875 " fill-opacity="1" fill-rule="nonzero"/></g></svg>