<svg xmlns="http://www.w3.org/2000/svg" xmlns:xlink="http://www.w3.org/1999/xlink" width="100" zoomAndPan="magnify" viewBox="0 0 75 74.999997" height="100" preserveAspectRatio="xMidYMid meet" version="1.0"><defs><clipPath id="c4e47c1fff"><path d="M 0 8 L 71 8 L 71 67.839844 L 0 67.839844 Z M 0 8 " clip-rule="nonzero"/></clipPath><clipPath id="0fdbdca1ab"><path d="M 0 7.089844 L 72 7.089844 L 72 67.839844 L 0 67.839844 Z M 0 7.089844 " clip-rule="nonzero"/></clipPath></defs><g clip-path="url(#c4e47c1fff)"><path fill="#ffffff" d="M 54.0625 17.4375 C 53.949219 17.394531 53.835938 17.339844 53.722656 17.296875 C 53.835938 17.28125 53.960938 17.265625 54.074219 17.253906 C 54.074219 17.308594 54.0625 17.382812 54.0625 17.4375 Z M 68.722656 21.269531 C 69.261719 21.300781 69.816406 21.3125 70.351562 21.285156 C 70.425781 21.285156 70.507812 21.269531 70.578125 21.230469 C 70.664062 21.171875 70.691406 21.058594 70.707031 20.957031 C 70.976562 19.589844 70.992188 18.179688 70.722656 16.8125 C 70.707031 16.738281 70.691406 16.65625 70.636719 16.597656 C 70.578125 16.539062 70.496094 16.511719 70.425781 16.496094 C 69.871094 16.371094 69.320312 16.425781 68.753906 16.46875 C 69.007812 18.066406 68.992188 19.691406 68.722656 21.269531 Z M 43.039062 17.109375 C 42.65625 17.011719 42.261719 16.925781 41.863281 16.855469 C 41.652344 16.824219 41.425781 16.796875 41.253906 16.910156 C 41.097656 17.023438 41.027344 17.222656 40.984375 17.410156 C 40.714844 18.351562 40.445312 19.304688 40.164062 20.246094 C 40.09375 20.472656 40.035156 20.703125 40.050781 20.945312 C 40.050781 21.015625 40.0625 21.101562 40.121094 21.15625 C 40.175781 21.214844 40.25 21.242188 40.332031 21.269531 C 40.714844 21.398438 41.097656 21.527344 41.480469 21.65625 C 41.777344 20.558594 42.117188 19.460938 42.515625 18.394531 C 42.65625 18.023438 42.828125 17.566406 43.039062 17.109375 Z M 58.808594 22.199219 C 58.777344 22.125 58.707031 22.070312 58.636719 22.027344 C 58.167969 21.726562 57.632812 21.570312 57.105469 21.429688 C 56.824219 23.011719 56.242188 24.535156 55.449219 25.929688 C 55.945312 26.144531 56.457031 26.34375 56.964844 26.5 C 57.035156 26.53125 57.121094 26.542969 57.191406 26.53125 C 57.292969 26.5 57.347656 26.414062 57.40625 26.316406 C 57.773438 25.71875 58.070312 25.074219 58.3125 24.40625 C 58.539062 23.765625 58.707031 23.09375 58.820312 22.425781 C 58.835938 22.339844 58.851562 22.269531 58.808594 22.199219 Z M 24.070312 19.046875 C 23.515625 15.855469 22.554688 12.523438 21.421875 9.628906 C 20.429688 7.09375 17.667969 8.105469 18.515625 11.253906 C 19.027344 13.191406 20.753906 16.78125 22.242188 19.71875 C 22.496094 19.675781 22.753906 19.648438 22.980469 19.632812 C 23.132812 19.40625 23.53125 19.191406 24.070312 19.046875 Z M 69.347656 32.527344 C 69.773438 31.417969 69.914062 30.433594 69.714844 29.679688 C 69.546875 29.023438 69.09375 28.496094 67.605469 28.339844 C 62.929688 27.855469 58.964844 27.382812 54.8125 26.914062 C 52.332031 26.628906 49.796875 26.34375 47.007812 26.058594 C 46.820312 26.046875 46.636719 26.046875 46.453125 26.058594 C 44.371094 26.230469 42.0625 28.523438 39.554688 31.660156 C 42.035156 31.273438 44.851562 30.847656 47.8125 30.304688 C 47.957031 30.820312 47.613281 31.429688 47.273438 32.03125 C 47.191406 32.171875 47.105469 32.316406 47.089844 32.484375 C 47.019531 33.15625 47.957031 33.527344 48.070312 34.195312 C 48.210938 35.035156 46.992188 35.5625 46.964844 36.417969 C 46.933594 37.246094 48.027344 37.886719 47.757812 38.65625 C 47.613281 39.054688 47.175781 39.238281 46.90625 39.566406 C 46.453125 40.109375 46.652344 41.0625 47.289062 41.378906 C 42.117188 42.203125 38.179688 42.886719 32.9375 43.558594 C 32.386719 43.628906 31.804688 43.699219 31.292969 43.972656 C 31.066406 44.742188 30.953125 45.46875 31.054688 46.007812 C 31.066406 46.222656 31.109375 46.421875 31.179688 46.621094 C 31.292969 46.949219 31.492188 47.234375 31.71875 47.476562 C 32.511719 48.332031 33.703125 48.671875 34.835938 48.957031 C 42.074219 50.769531 49.511719 51.738281 56.964844 51.863281 C 57.558594 51.878906 58.183594 51.878906 58.722656 51.59375 C 59.148438 51.378906 59.457031 50.996094 59.769531 50.625 C 63.285156 46.363281 75 32.742188 69.347656 32.527344 Z M 21.050781 48.515625 C 22.867188 48.902344 24.691406 49.300781 26.507812 49.699219 C 27.894531 50 29.28125 50.296875 30.671875 50.609375 C 32.273438 50.9375 33.902344 51.296875 35.316406 52.09375 C 36.75 52.890625 37.980469 54.230469 38.335938 55.898438 C 33.121094 54.585938 27.527344 53.246094 22.753906 52.390625 C 24.933594 57.007812 27.980469 62.496094 30.882812 67.566406 C 29.199219 67.683594 27.570312 66.855469 26.40625 65.703125 C 25.257812 64.546875 24.464844 63.078125 23.714844 61.613281 C 21.957031 58.320312 20.214844 55.015625 18.460938 51.722656 C 17.523438 51.609375 16.632812 51.523438 15.839844 51.464844 C 13.132812 51.308594 9.578125 55.699219 6.207031 56.46875 C 4.5625 56.839844 1.839844 55.667969 1.21875 54.101562 C 0 52.71875 0.183594 46.890625 8.089844 46.492188 C 9.832031 46.40625 11.941406 46.578125 14.507812 47.121094 C 15.085938 47.25 15.65625 47.363281 16.234375 47.492188 C 16.136719 47.304688 16.035156 47.121094 15.9375 46.933594 C 13.332031 41.988281 12.878906 38.527344 13.417969 36.191406 C 14.28125 32.429688 17.722656 31.574219 18.96875 32.171875 C 20.667969 32.328125 22.527344 34.652344 22.625 36.332031 C 22.625 36.417969 22.625 36.503906 22.625 36.589844 C 22.640625 40.039062 19.605469 44.496094 20.484375 47.019531 C 20.65625 47.492188 20.839844 47.988281 21.050781 48.515625 Z M 17.070312 43.972656 C 18.121094 44.226562 18.996094 43.429688 19.453125 42.21875 C 19.804688 41.234375 20.34375 39.554688 20.484375 38.171875 C 20.542969 37.617188 20.5 37.015625 20.34375 36.476562 C 20.117188 35.664062 19.648438 34.9375 18.914062 34.582031 C 18.277344 34.265625 17.511719 34.28125 16.871094 34.582031 C 16.191406 34.90625 15.753906 35.519531 15.46875 36.234375 C 15.257812 36.789062 15.128906 37.402344 15.085938 37.984375 C 14.972656 39.210938 15.058594 40.453125 15.34375 41.648438 C 15.570312 42.644531 16.078125 43.742188 17.070312 43.972656 Z M 19.421875 49.3125 C 19.109375 49.101562 18.628906 49.15625 18.402344 49.457031 C 18.316406 49.554688 18.277344 49.671875 18.246094 49.796875 C 18.175781 50.140625 18.304688 50.539062 18.585938 50.726562 C 18.871094 50.910156 19.480469 50.96875 19.71875 50.324219 C 19.847656 49.96875 19.734375 49.527344 19.421875 49.3125 Z M 12.183594 50.070312 C 12.253906 49.699219 12.199219 49.328125 12 48.957031 C 11.519531 48.058594 10.328125 47.875 9.308594 47.933594 C 9.066406 47.945312 8.839844 47.976562 8.597656 47.988281 C 7.621094 48.101562 6.660156 48.332031 5.738281 48.703125 C 4.492188 49.1875 3.214844 50.042969 2.976562 51.367188 C 2.847656 52.050781 3.058594 52.804688 3.527344 53.332031 C 4.449219 54.386719 6.105469 54.386719 7.394531 53.875 C 8.683594 53.359375 10.144531 52.378906 10.980469 51.765625 C 11.632812 51.28125 12.070312 50.683594 12.183594 50.070312 Z M 12.183594 50.070312 " fill-opacity="1" fill-rule="nonzero"/></g><path fill="#020202" d="M 46.453125 26.058594 C 45.050781 25.53125 43.675781 24.917969 42.34375 24.207031 C 41.960938 24.007812 41.550781 23.765625 41.367188 23.367188 C 41.167969 22.9375 41.28125 22.425781 41.394531 21.96875 C 41.425781 21.871094 41.453125 21.757812 41.480469 21.65625 C 41.777344 20.558594 42.117188 19.460938 42.515625 18.394531 C 42.65625 18.023438 42.828125 17.566406 43.039062 17.109375 C 43.464844 16.242188 44.03125 15.414062 44.796875 15.457031 C 49.089844 15.671875 51.355469 16.285156 53.722656 17.28125 C 53.835938 17.324219 53.949219 17.382812 54.0625 17.425781 C 54.457031 17.59375 54.867188 17.78125 55.308594 17.980469 C 55.890625 18.25 56.527344 18.507812 56.894531 19.035156 C 57.332031 19.675781 57.277344 20.53125 57.136719 21.300781 C 57.136719 21.34375 57.121094 21.371094 57.121094 21.414062 C 56.839844 22.996094 56.257812 24.519531 55.464844 25.917969 C 55.378906 26.058594 55.292969 26.203125 55.207031 26.34375 C 55.09375 26.53125 54.96875 26.730469 54.828125 26.898438 C 52.347656 26.613281 49.8125 26.328125 47.019531 26.046875 C 46.820312 26.046875 46.636719 26.046875 46.453125 26.058594 Z M 18.402344 21.683594 C 17.441406 22.925781 16.660156 25.71875 18.035156 28.238281 C 18.8125 29.664062 20.386719 30.417969 21.957031 30.960938 C 22.328125 31.558594 22.9375 31.988281 23.601562 32.171875 C 24.269531 32.359375 24.992188 32.34375 25.671875 32.199219 C 26.308594 32.074219 26.960938 31.773438 27.511719 31.03125 C 28.363281 31.132812 29.210938 30.832031 29.921875 30.375 C 30.628906 29.921875 31.210938 29.292969 31.761719 28.636719 C 32.128906 28.195312 32.5 27.742188 32.738281 27.214844 C 33.007812 26.628906 33.136719 25.988281 33.179688 25.347656 C 33.277344 23.964844 33.050781 22.496094 32.230469 21.386719 C 31.40625 20.273438 29.90625 19.605469 28.601562 20.046875 C 27.539062 18.761719 25.402344 18.691406 24.070312 19.046875 C 23.53125 19.191406 23.132812 19.40625 22.980469 19.632812 C 22.738281 19.648438 22.496094 19.675781 22.242188 19.71875 C 20.824219 19.960938 19.167969 20.714844 18.402344 21.683594 Z M 18.402344 21.683594 " fill-opacity="1" fill-rule="nonzero"/><path fill="#020202" d="M 54.0625 17.4375 C 54.0625 17.382812 54.074219 17.308594 54.074219 17.253906 C 54.175781 16.285156 54.445312 15.316406 55.167969 15.085938 C 60.167969 13.535156 62.546875 13.589844 65.90625 13.875 C 66.542969 13.933594 67.222656 13.945312 67.746094 14.316406 C 68.371094 14.773438 68.609375 15.601562 68.738281 16.371094 C 68.738281 16.398438 68.753906 16.425781 68.753906 16.46875 C 69.007812 18.066406 68.992188 19.691406 68.722656 21.269531 C 68.695312 21.441406 68.667969 21.613281 68.625 21.785156 C 68.527344 22.269531 68.382812 22.753906 68.074219 23.136719 C 67.589844 23.707031 66.78125 23.894531 66.046875 24.023438 C 63.496094 24.449219 60.890625 24.578125 58.3125 24.40625 C 58.539062 23.765625 58.707031 23.09375 58.820312 22.425781 C 58.835938 22.339844 58.851562 22.269531 58.808594 22.199219 C 58.777344 22.125 58.707031 22.070312 58.636719 22.027344 C 58.167969 21.726562 57.632812 21.570312 57.105469 21.429688 C 57.105469 21.386719 57.121094 21.355469 57.121094 21.3125 C 57.261719 20.542969 57.320312 19.691406 56.878906 19.046875 C 56.511719 18.519531 55.875 18.265625 55.292969 17.992188 C 54.867188 17.792969 54.457031 17.609375 54.0625 17.4375 Z M 17.070312 43.972656 C 18.121094 44.226562 18.996094 43.429688 19.453125 42.21875 C 19.804688 41.234375 20.34375 39.554688 20.484375 38.171875 C 20.542969 37.617188 20.5 37.015625 20.34375 36.476562 C 19.039062 36.390625 17.808594 36.304688 16.902344 36.277344 C 16.433594 36.261719 15.953125 36.246094 15.46875 36.234375 C 15.257812 36.789062 15.128906 37.402344 15.085938 37.984375 C 14.972656 39.210938 15.058594 40.453125 15.34375 41.648438 C 15.570312 42.644531 16.078125 43.742188 17.070312 43.972656 Z M 7.210938 49.355469 C 8.769531 49.671875 10.457031 49.898438 12.167969 50.070312 C 12.242188 49.699219 12.183594 49.328125 11.984375 48.957031 C 11.503906 48.058594 10.3125 47.875 9.292969 47.933594 C 9.050781 47.945312 8.824219 47.976562 8.585938 47.988281 C 8.515625 48.558594 8.003906 49.070312 7.210938 49.355469 Z M 14.507812 47.105469 C 15.085938 47.234375 15.65625 47.347656 16.234375 47.476562 C 16.136719 47.289062 16.035156 47.105469 15.9375 46.921875 C 13.332031 41.976562 12.878906 38.511719 13.417969 36.175781 C 11.191406 36.105469 9.335938 36.035156 9.335938 36.035156 C 9.335938 36.035156 9.179688 37.332031 9.789062 38.398438 C 10.640625 39.882812 11.519531 39.753906 11.304688 40.808594 C 11.136719 41.71875 9.449219 41.492188 9.136719 42.359375 C 8.796875 43.285156 10.3125 44.199219 9.875 45.082031 C 9.519531 45.78125 8.160156 45.824219 8.089844 46.480469 C 9.847656 46.394531 11.957031 46.5625 14.507812 47.105469 Z M 32.925781 43.558594 C 38.164062 42.886719 42.105469 42.203125 47.273438 41.378906 C 46.636719 41.0625 46.4375 40.109375 46.894531 39.566406 C 47.160156 39.238281 47.601562 39.054688 47.742188 38.65625 C 48.011719 37.886719 46.921875 37.246094 46.949219 36.417969 C 46.976562 35.5625 48.195312 35.035156 48.054688 34.195312 C 47.941406 33.527344 47.007812 33.15625 47.078125 32.484375 C 47.089844 32.316406 47.175781 32.171875 47.261719 32.03125 C 47.601562 31.429688 47.941406 30.820312 47.800781 30.304688 C 44.839844 30.847656 42.035156 31.273438 39.539062 31.660156 C 34.679688 32.414062 31.082031 32.957031 30.160156 33.667969 C 29.382812 34.253906 28.816406 35.09375 28.050781 35.71875 C 27.085938 36.503906 24.917969 36.648438 22.625 36.574219 C 22.640625 40.023438 19.605469 44.484375 20.484375 47.007812 C 20.65625 47.476562 20.839844 47.988281 21.050781 48.515625 C 22.867188 48.902344 24.691406 49.300781 26.507812 49.699219 C 27.300781 49.472656 28.023438 49.101562 28.546875 48.472656 C 29.679688 47.148438 29.679688 44.925781 31.179688 44.042969 C 31.210938 44.027344 31.253906 44 31.28125 43.984375 C 31.789062 43.714844 32.371094 43.628906 32.925781 43.558594 Z M 19.421875 49.3125 C 19.109375 49.101562 18.628906 49.15625 18.402344 49.457031 C 18.316406 49.554688 18.277344 49.671875 18.246094 49.796875 C 18.175781 50.140625 18.304688 50.539062 18.585938 50.726562 C 18.871094 50.910156 19.480469 50.96875 19.71875 50.324219 C 19.847656 49.96875 19.734375 49.527344 19.421875 49.3125 Z M 19.421875 49.3125 " fill-opacity="1" fill-rule="nonzero"/><g clip-path="url(#0fdbdca1ab)"><path fill="#000000" d="M 14.707031 18.179688 L 14.71875 18.179688 C 14.875 18.179688 15.003906 18.066406 14.988281 17.921875 C 15.101562 16.253906 15.78125 14.53125 16.914062 13.09375 C 17.269531 12.636719 17.75 12.125 18.332031 11.695312 C 18.941406 13.648438 20.441406 16.796875 21.804688 19.503906 C 20.441406 19.816406 18.941406 20.53125 18.191406 21.5 C 17.253906 22.726562 16.304688 25.660156 17.792969 28.367188 C 18.617188 29.890625 20.257812 30.648438 21.773438 31.1875 C 22.171875 31.773438 22.792969 32.230469 23.53125 32.441406 C 23.886719 32.542969 24.269531 32.601562 24.664062 32.601562 C 25.019531 32.601562 25.375 32.558594 25.726562 32.441406 C 26.535156 32.273438 27.144531 31.902344 27.640625 31.289062 C 28.433594 31.332031 29.296875 31.089844 30.078125 30.578125 C 30.855469 30.078125 31.480469 29.394531 31.988281 28.78125 C 32.429688 28.269531 32.769531 27.824219 33.007812 27.300781 C 33.023438 27.269531 33.039062 27.242188 33.050781 27.214844 C 33.800781 27.070312 34.539062 26.785156 35.089844 26.257812 C 35.148438 26.328125 35.234375 26.402344 35.304688 26.457031 C 36.011719 27 37.0625 27 37.785156 26.5 C 38.011719 26.8125 38.335938 27.070312 38.734375 27.242188 C 39.042969 27.371094 39.371094 27.441406 39.695312 27.441406 C 40.050781 27.441406 40.390625 27.355469 40.714844 27.242188 C 40.859375 27.171875 40.914062 27 40.84375 26.855469 C 40.773438 26.714844 40.601562 26.65625 40.460938 26.730469 C 40.023438 26.941406 39.46875 26.941406 38.972656 26.742188 C 38.648438 26.613281 38.390625 26.386719 38.222656 26.128906 C 38.773438 25.402344 38.804688 24.320312 38.25 23.578125 C 38.195312 23.496094 38.082031 23.4375 37.980469 23.464844 C 37.867188 23.496094 37.785156 23.566406 37.753906 23.664062 C 37.5 24.464844 37.289062 25.246094 37.542969 26.015625 C 37.03125 26.429688 36.210938 26.445312 35.6875 26.03125 C 35.617188 25.988281 35.558594 25.917969 35.503906 25.859375 C 35.800781 25.433594 35.925781 24.820312 35.785156 24.347656 C 35.6875 24.007812 35.472656 23.78125 35.164062 23.664062 C 35.035156 23.621094 34.894531 23.679688 34.824219 23.792969 C 34.46875 24.40625 34.484375 25.191406 34.792969 25.816406 C 34.382812 26.230469 33.84375 26.472656 33.25 26.613281 C 33.347656 26.246094 33.417969 25.816406 33.460938 25.347656 C 33.546875 24.191406 33.449219 22.539062 32.457031 21.199219 C 31.550781 19.976562 29.992188 19.363281 28.6875 19.703125 C 27.910156 18.863281 26.777344 18.636719 25.925781 18.578125 C 25.953125 18.363281 25.96875 18.152344 25.980469 17.9375 C 26.632812 16.855469 27.582031 15.957031 28.714844 15.414062 C 28.859375 15.34375 28.914062 15.171875 28.84375 15.03125 C 28.773438 14.886719 28.601562 14.832031 28.460938 14.902344 C 27.511719 15.371094 26.675781 16.070312 26.011719 16.910156 C 25.980469 15.285156 25.628906 13.761719 24.976562 12.4375 C 24.410156 11.3125 23.347656 10.15625 22.042969 10.3125 C 22.015625 10.3125 22 10.3125 21.988281 10.328125 C 21.886719 10.058594 21.789062 9.785156 21.675781 9.515625 C 21.121094 8.089844 20.089844 7.71875 19.308594 7.976562 C 18.460938 8.261719 17.78125 9.359375 18.191406 11.125 C 17.480469 11.609375 16.914062 12.207031 16.492188 12.734375 C 15.273438 14.273438 14.550781 16.097656 14.4375 17.878906 C 14.4375 18.035156 14.550781 18.164062 14.707031 18.179688 Z M 38.050781 24.589844 C 38.082031 24.847656 38.050781 25.105469 37.980469 25.316406 C 37.96875 25.089844 37.996094 24.847656 38.050781 24.589844 Z M 35.164062 24.335938 C 35.175781 24.378906 35.203125 24.421875 35.234375 24.464844 C 35.289062 24.675781 35.261719 24.960938 35.164062 25.21875 C 35.078125 24.933594 35.078125 24.621094 35.164062 24.335938 Z M 18.304688 28.109375 C 16.945312 25.632812 17.792969 22.96875 18.644531 21.871094 C 19.339844 20.972656 20.882812 20.273438 22.199219 20.03125 C 20.9375 21.457031 20.484375 23.253906 20.359375 24.578125 C 20.171875 26.316406 20.300781 27.996094 21.40625 30.449219 C 20.171875 29.964844 18.941406 29.292969 18.304688 28.109375 Z M 27.269531 30.859375 C 27.257812 30.875 27.242188 30.902344 27.242188 30.917969 C 26.832031 31.460938 26.320312 31.757812 25.628906 31.914062 C 24.933594 32.058594 24.269531 32.058594 23.703125 31.886719 C 23.078125 31.703125 22.554688 31.316406 22.226562 30.832031 C 22.226562 30.832031 22.226562 30.820312 22.226562 30.820312 C 20.882812 28.140625 20.742188 26.402344 20.925781 24.621094 C 21.082031 23.195312 21.589844 21.214844 23.191406 19.847656 C 23.21875 19.816406 23.246094 19.789062 23.261719 19.761719 C 23.445312 19.519531 24.183594 19.234375 25.117188 19.164062 C 25.160156 19.164062 25.21875 19.164062 25.257812 19.148438 C 25.21875 19.390625 25.175781 19.632812 25.117188 19.890625 C 25.074219 20.117188 25.019531 20.332031 24.960938 20.558594 C 24.664062 21.769531 24.367188 23.011719 24.777344 24.207031 C 25.132812 25.246094 26.039062 26.144531 27.257812 26.65625 C 27.765625 26.871094 28.292969 27 28.816406 27.097656 C 28.460938 28.609375 27.894531 29.976562 27.269531 30.859375 Z M 31.5625 28.425781 C 31.082031 29.007812 30.488281 29.664062 29.777344 30.121094 C 29.199219 30.492188 28.601562 30.691406 28.023438 30.734375 C 28.574219 29.808594 29.054688 28.539062 29.367188 27.183594 C 29.792969 27.242188 30.21875 27.269531 30.613281 27.300781 C 31.140625 27.339844 31.75 27.355469 32.371094 27.300781 C 32.160156 27.683594 31.890625 28.027344 31.5625 28.425781 Z M 32.015625 21.527344 C 32.894531 22.726562 32.996094 24.234375 32.910156 25.289062 C 32.867188 25.84375 32.78125 26.316406 32.640625 26.730469 C 31.960938 26.816406 31.28125 26.800781 30.6875 26.757812 C 30.304688 26.730469 29.890625 26.699219 29.480469 26.65625 C 29.933594 24.363281 29.921875 21.882812 29.015625 20.21875 C 30.078125 20.015625 31.292969 20.53125 32.015625 21.527344 Z M 25.683594 20.03125 C 25.742188 19.734375 25.796875 19.449219 25.839844 19.164062 C 26.875 19.21875 27.765625 19.574219 28.304688 20.132812 C 28.320312 20.160156 28.320312 20.1875 28.347656 20.21875 C 29.367188 21.769531 29.398438 24.277344 28.929688 26.585938 C 28.433594 26.5 27.953125 26.371094 27.5 26.171875 C 26.421875 25.730469 25.640625 24.960938 25.332031 24.0625 C 24.976562 23.023438 25.257812 21.855469 25.527344 20.730469 C 25.585938 20.488281 25.628906 20.257812 25.683594 20.03125 Z M 24.453125 12.679688 C 25.1875 14.160156 25.515625 15.929688 25.402344 17.78125 C 25.246094 18.035156 25.117188 18.308594 24.992188 18.578125 C 24.75 18.605469 24.496094 18.636719 24.253906 18.691406 C 23.800781 16.171875 23.09375 13.476562 22.15625 10.855469 C 23.164062 10.8125 24 11.753906 24.453125 12.679688 Z M 19.492188 8.519531 C 19.578125 8.488281 19.679688 8.476562 19.777344 8.476562 C 20.246094 8.476562 20.796875 8.847656 21.164062 9.730469 C 22.339844 12.734375 23.234375 15.914062 23.757812 18.847656 C 23.375 18.976562 23.050781 19.148438 22.851562 19.347656 C 22.710938 19.363281 22.554688 19.375 22.398438 19.390625 C 20.996094 16.625 19.394531 13.261719 18.84375 11.367188 C 19.109375 11.210938 19.394531 11.082031 19.707031 10.996094 C 19.847656 11.566406 20.058594 11.625 20.132812 11.640625 C 20.160156 11.652344 20.1875 11.652344 20.214844 11.652344 C 20.328125 11.652344 20.429688 11.597656 20.515625 11.46875 C 20.710938 11.183594 20.597656 10.5 20.441406 10.15625 C 20.230469 9.714844 19.976562 9.742188 19.875 9.773438 C 19.605469 9.859375 19.578125 10.171875 19.605469 10.441406 C 19.296875 10.527344 18.984375 10.65625 18.699219 10.8125 C 18.460938 9.5 18.925781 8.71875 19.492188 8.519531 Z M 69.703125 32.300781 C 70.054688 31.261719 70.15625 30.347656 69.972656 29.621094 C 69.730469 28.695312 69.007812 28.210938 67.617188 28.070312 C 63.894531 27.683594 60.5625 27.300781 57.332031 26.929688 C 56.652344 26.855469 55.972656 26.773438 55.292969 26.699219 C 55.335938 26.644531 55.363281 26.585938 55.40625 26.515625 C 55.449219 26.445312 55.492188 26.359375 55.546875 26.273438 C 55.988281 26.457031 56.441406 26.628906 56.894531 26.773438 C 56.964844 26.785156 57.050781 26.8125 57.148438 26.8125 C 57.191406 26.8125 57.25 26.8125 57.292969 26.800781 C 57.519531 26.742188 57.617188 26.558594 57.671875 26.472656 C 58.015625 25.917969 58.296875 25.332031 58.523438 24.734375 C 59.191406 24.777344 59.855469 24.792969 60.519531 24.792969 C 62.378906 24.792969 64.246094 24.632812 66.089844 24.320312 C 66.867188 24.191406 67.730469 24.007812 68.285156 23.335938 C 68.640625 22.910156 68.78125 22.382812 68.894531 21.855469 C 68.90625 21.757812 68.9375 21.65625 68.949219 21.570312 C 69.191406 21.585938 69.445312 21.585938 69.6875 21.585938 C 69.929688 21.585938 70.15625 21.585938 70.382812 21.597656 C 70.464844 21.585938 70.621094 21.585938 70.75 21.484375 C 70.933594 21.355469 70.976562 21.144531 70.992188 21.042969 C 71.261719 19.648438 71.273438 18.179688 71.003906 16.78125 C 70.992188 16.710938 70.960938 16.554688 70.847656 16.425781 C 70.734375 16.296875 70.566406 16.253906 70.496094 16.242188 C 69.984375 16.128906 69.460938 16.140625 68.980469 16.171875 C 68.835938 15.445312 68.582031 14.589844 67.902344 14.105469 C 67.378906 13.71875 66.742188 13.664062 66.132812 13.621094 L 65.917969 13.605469 C 62.574219 13.320312 60.167969 13.25 55.082031 14.832031 C 54.273438 15.074219 53.949219 16.027344 53.820312 16.980469 C 53.792969 16.980469 53.75 16.980469 53.722656 16.996094 C 51.382812 16.011719 49.101562 15.402344 44.796875 15.1875 C 44.769531 15.1875 44.753906 15.1875 44.726562 15.1875 C 43.917969 15.1875 43.308594 15.929688 42.882812 16.753906 C 42.570312 16.683594 42.246094 16.613281 41.921875 16.554688 C 41.652344 16.511719 41.351562 16.496094 41.097656 16.667969 C 40.859375 16.839844 40.773438 17.140625 40.714844 17.324219 L 39.894531 20.160156 C 39.824219 20.402344 39.753906 20.671875 39.765625 20.957031 C 39.78125 21.128906 39.824219 21.242188 39.910156 21.34375 C 40.007812 21.472656 40.136719 21.511719 40.234375 21.542969 L 41.113281 21.828125 C 41.113281 21.855469 41.097656 21.882812 41.085938 21.898438 C 40.957031 22.398438 40.84375 22.980469 41.085938 23.496094 C 41.3125 23.964844 41.75 24.234375 42.1875 24.464844 C 43.25 25.035156 44.34375 25.53125 45.460938 25.988281 C 43.578125 26.644531 41.566406 28.695312 39.398438 31.375 C 34.496094 32.128906 30.953125 32.683594 29.976562 33.425781 C 29.539062 33.753906 29.167969 34.152344 28.816406 34.539062 C 28.488281 34.878906 28.191406 35.191406 27.851562 35.476562 C 27.003906 36.175781 25.019531 36.320312 22.921875 36.277344 C 22.792969 34.523438 20.9375 32.085938 19.070312 31.859375 C 18.019531 31.386719 16.007812 31.832031 14.648438 33.253906 C 14.125 33.796875 13.558594 34.636719 13.230469 35.847656 C 11.105469 35.777344 9.363281 35.71875 9.335938 35.71875 C 9.167969 35.707031 9.050781 35.835938 9.039062 35.976562 C 9.039062 36.035156 8.882812 37.375 9.535156 38.511719 C 9.917969 39.195312 10.3125 39.554688 10.609375 39.824219 C 10.980469 40.167969 11.105469 40.28125 11.023438 40.722656 C 10.964844 41.007812 10.652344 41.136719 10.144531 41.304688 C 9.632812 41.492188 9.066406 41.675781 8.867188 42.230469 C 8.65625 42.816406 8.980469 43.359375 9.28125 43.828125 C 9.589844 44.328125 9.761719 44.640625 9.621094 44.925781 C 9.507812 45.183594 9.152344 45.339844 8.8125 45.496094 C 8.457031 45.652344 8.0625 45.835938 7.890625 46.179688 C 3.683594 46.449219 1.871094 48.246094 1.105469 49.554688 C 0.113281 51.253906 0.242188 53.320312 0.976562 54.214844 C 1.613281 55.726562 3.851562 56.796875 5.554688 56.796875 C 5.792969 56.796875 6.050781 56.765625 6.289062 56.722656 C 7.933594 56.355469 9.5625 55.171875 11.148438 54.046875 C 12.878906 52.820312 14.519531 51.636719 15.839844 51.738281 C 16.605469 51.78125 17.425781 51.863281 18.316406 51.980469 C 20.03125 55.226562 21.746094 58.476562 23.476562 61.710938 C 24.269531 63.234375 25.074219 64.71875 26.222656 65.871094 C 27.484375 67.140625 29.054688 67.839844 30.585938 67.839844 C 30.699219 67.839844 30.800781 67.839844 30.925781 67.808594 C 31.027344 67.808594 31.109375 67.753906 31.152344 67.667969 C 31.210938 67.582031 31.195312 67.480469 31.152344 67.398438 C 28.714844 63.136719 25.601562 57.59375 23.277344 52.761719 C 28.277344 53.6875 33.886719 55.058594 38.277344 56.152344 C 38.378906 56.183594 38.476562 56.152344 38.546875 56.082031 C 38.621094 56.011719 38.648438 55.910156 38.632812 55.8125 C 38.292969 54.203125 37.132812 52.734375 35.472656 51.808594 C 34.042969 51.011719 32.414062 50.640625 30.742188 50.296875 C 29.664062 50.070312 28.601562 49.828125 27.527344 49.597656 C 27.992188 49.371094 28.417969 49.058594 28.773438 48.644531 C 29.28125 48.058594 29.566406 47.304688 29.851562 46.578125 C 30.117188 45.878906 30.375 45.226562 30.800781 44.742188 C 30.699219 45.265625 30.6875 45.765625 30.769531 46.164062 C 30.800781 46.363281 30.839844 46.550781 30.898438 46.722656 C 31.027344 47.0625 31.222656 47.375 31.492188 47.675781 C 32.328125 48.574219 33.5625 48.929688 34.75 49.230469 C 42.003906 51.039062 49.472656 52.023438 56.9375 52.148438 C 57.035156 52.148438 57.136719 52.148438 57.234375 52.148438 C 57.730469 52.148438 58.324219 52.105469 58.835938 51.851562 C 59.316406 51.59375 59.671875 51.179688 59.96875 50.808594 L 60.71875 49.914062 C 66.753906 42.644531 72.179688 35.5625 70.949219 33.097656 C 70.734375 32.65625 70.324219 32.386719 69.703125 32.300781 Z M 69.078125 16.738281 C 69.515625 16.710938 69.957031 16.699219 70.382812 16.796875 C 70.425781 16.8125 70.4375 16.824219 70.453125 16.8125 C 70.453125 16.824219 70.453125 16.855469 70.464844 16.898438 C 70.722656 18.207031 70.722656 19.605469 70.453125 20.929688 C 70.4375 20.988281 70.425781 21.015625 70.4375 21.015625 C 70.425781 21.015625 70.382812 21.015625 70.367188 21.015625 C 69.929688 21.027344 69.503906 21.027344 69.0625 21 C 69.261719 19.589844 69.277344 18.136719 69.078125 16.738281 Z M 57.277344 27.484375 C 58.820312 27.65625 60.394531 27.839844 62.039062 28.027344 C 60.71875 29.722656 59.035156 31.089844 57.105469 32.03125 C 55.5625 32.785156 54.230469 33.054688 53.027344 32.882812 C 51.582031 32.671875 50.363281 31.671875 50.066406 30.460938 C 49.769531 29.207031 50.363281 27.925781 51.058594 26.785156 C 53.210938 27.027344 55.265625 27.257812 57.277344 27.484375 Z M 54.925781 26.203125 C 54.839844 26.34375 54.742188 26.488281 54.65625 26.613281 C 54.175781 26.558594 53.679688 26.5 53.183594 26.445312 C 54.699219 24.40625 55.929688 22.183594 56.878906 19.816406 C 56.964844 20.289062 56.910156 20.800781 56.824219 21.242188 C 56.496094 23.011719 55.859375 24.675781 54.925781 26.203125 Z M 58.566406 22.367188 C 58.355469 23.695312 57.871094 25.003906 57.179688 26.160156 C 57.148438 26.203125 57.136719 26.230469 57.136719 26.230469 C 57.121094 26.230469 57.078125 26.214844 57.066406 26.214844 C 56.652344 26.085938 56.242188 25.945312 55.832031 25.773438 C 56.511719 24.519531 57.007812 23.167969 57.292969 21.757812 C 57.730469 21.882812 58.15625 22.027344 58.523438 22.253906 C 58.566406 22.269531 58.582031 22.28125 58.582031 22.28125 C 58.582031 22.296875 58.566406 22.324219 58.566406 22.367188 Z M 58.808594 24.164062 C 58.792969 24.148438 58.777344 24.121094 58.765625 24.105469 C 58.765625 24.105469 58.75 24.09375 58.75 24.09375 C 58.878906 23.664062 58.992188 23.238281 59.078125 22.808594 C 59.273438 23.28125 59.488281 23.75 59.714844 24.207031 C 59.417969 24.191406 59.105469 24.191406 58.808594 24.164062 Z M 68 15.03125 C 68.257812 15.445312 68.371094 15.96875 68.453125 16.425781 C 68.753906 18.164062 68.722656 20.003906 68.355469 21.726562 C 68.242188 22.253906 68.113281 22.652344 67.859375 22.96875 C 67.519531 23.394531 66.96875 23.566406 66.414062 23.695312 C 67.390625 20.886719 67.917969 17.980469 68 15.03125 Z M 67.464844 14.472656 C 67.464844 14.488281 67.464844 14.503906 67.464844 14.515625 C 67.421875 17.679688 66.867188 20.800781 65.792969 23.78125 C 65.792969 23.78125 65.792969 23.78125 65.792969 23.792969 C 65.28125 23.878906 64.785156 23.949219 64.277344 24.007812 C 65.464844 22.210938 65.820312 20.015625 66.117188 18.066406 L 66.710938 14.246094 C 66.980469 14.273438 67.238281 14.347656 67.464844 14.472656 Z M 65.875 14.160156 L 66.089844 14.175781 C 66.101562 14.175781 66.117188 14.175781 66.132812 14.175781 L 65.535156 17.964844 C 65.210938 20.003906 64.855469 22.3125 63.539062 24.035156 C 63.523438 24.050781 63.523438 24.0625 63.511719 24.078125 C 63.140625 24.105469 62.789062 24.136719 62.417969 24.164062 C 62.417969 24.148438 62.40625 24.136719 62.40625 24.136719 C 62.265625 23.921875 62.136719 23.695312 62.007812 23.480469 C 62.050781 23.453125 62.09375 23.421875 62.109375 23.367188 C 62.789062 22.140625 63.140625 20.785156 63.480469 19.476562 C 63.949219 17.722656 64.402344 15.914062 64.699219 14.089844 C 65.082031 14.105469 65.480469 14.132812 65.875 14.160156 Z M 64.132812 14.03125 C 63.851562 15.8125 63.382812 17.609375 62.945312 19.332031 C 62.632812 20.558594 62.304688 21.796875 61.710938 22.910156 C 61.214844 21.957031 60.820312 20.957031 60.492188 19.945312 C 61.625 18.109375 62.191406 16.027344 62.746094 14.003906 C 63.199219 14.003906 63.667969 14.019531 64.132812 14.03125 Z M 61.046875 14.246094 C 61.058594 14.1875 61.058594 14.148438 61.058594 14.089844 C 61.429688 14.0625 61.78125 14.03125 62.136719 14.019531 C 61.65625 15.785156 61.144531 17.582031 60.265625 19.191406 C 60.109375 18.636719 59.984375 18.09375 59.855469 17.539062 C 60.082031 16.78125 60.394531 15.941406 60.71875 15.128906 C 60.832031 14.832031 60.945312 14.53125 61.046875 14.246094 Z M 60.464844 14.160156 C 60.378906 14.417969 60.28125 14.675781 60.179688 14.929688 C 59.996094 15.429688 59.796875 15.941406 59.628906 16.441406 C 59.5 15.726562 59.386719 15.015625 59.289062 14.332031 C 59.699219 14.273438 60.097656 14.203125 60.464844 14.160156 Z M 58.734375 14.460938 C 59.175781 17.609375 59.898438 21.171875 61.796875 24.191406 C 61.316406 24.207031 60.847656 24.222656 60.367188 24.222656 C 60.367188 24.207031 60.351562 24.191406 60.351562 24.191406 C 58.851562 21.242188 58 17.964844 57.886719 14.660156 C 58.167969 14.574219 58.453125 14.515625 58.734375 14.460938 Z M 56.824219 14.917969 C 56.992188 14.875 57.148438 14.832031 57.304688 14.789062 C 57.390625 17.125 57.84375 19.449219 58.636719 21.671875 C 58.253906 21.457031 57.828125 21.328125 57.417969 21.199219 C 57.417969 21.199219 57.417969 21.1875 57.417969 21.1875 C 57.53125 20.460938 57.574219 19.589844 57.105469 18.890625 C 57.050781 18.804688 56.980469 18.734375 56.921875 18.664062 C 56.753906 17.425781 56.722656 16.15625 56.824219 14.917969 Z M 56.539062 19.105469 C 56.539062 19.121094 56.527344 19.132812 56.527344 19.132812 C 55.546875 21.742188 54.203125 24.179688 52.53125 26.386719 C 52.078125 26.328125 51.625 26.289062 51.15625 26.230469 C 52.402344 25.003906 53.28125 23.421875 54.0625 21.984375 L 55.917969 18.621094 C 56.15625 18.75 56.382812 18.90625 56.539062 19.105469 Z M 55.40625 15.328125 C 55.691406 15.242188 55.972656 15.160156 56.242188 15.074219 C 56.171875 16.097656 56.1875 17.140625 56.285156 18.179688 C 56.058594 18.050781 55.816406 17.9375 55.589844 17.835938 L 55.40625 17.75 C 55.320312 17.710938 55.238281 17.679688 55.167969 17.636719 C 55.179688 16.867188 55.265625 16.097656 55.40625 15.328125 Z M 54.753906 15.828125 C 54.683594 16.339844 54.628906 16.867188 54.613281 17.394531 C 54.527344 17.351562 54.457031 17.324219 54.371094 17.28125 C 54.414062 16.738281 54.527344 16.199219 54.753906 15.828125 Z M 54.105469 17.765625 C 54.445312 17.921875 54.796875 18.078125 55.152344 18.25 L 55.351562 18.335938 C 55.363281 18.351562 55.394531 18.351562 55.40625 18.363281 L 53.550781 21.726562 C 52.714844 23.253906 51.792969 24.949219 50.40625 26.144531 C 49.753906 26.074219 49.101562 26.003906 48.4375 25.929688 C 48.421875 25.84375 48.410156 25.761719 48.378906 25.660156 C 48.421875 25.644531 48.464844 25.632812 48.492188 25.601562 C 49.542969 24.691406 50.335938 23.535156 51.128906 22.382812 C 52.164062 20.914062 53.210938 19.375 54.105469 17.765625 Z M 53.578125 17.550781 C 52.699219 19.105469 51.679688 20.628906 50.648438 22.125 C 49.953125 23.152344 49.214844 24.222656 48.296875 25.046875 C 48.152344 23.992188 48.109375 22.925781 48.152344 21.855469 C 49.839844 20.53125 51.085938 18.75 52.277344 17.039062 C 52.714844 17.195312 53.15625 17.367188 53.578125 17.550781 Z M 50.660156 16.539062 C 51.03125 16.640625 51.371094 16.738281 51.710938 16.839844 C 50.660156 18.335938 49.570312 19.859375 48.183594 21.070312 C 48.222656 20.515625 48.28125 19.960938 48.351562 19.40625 C 48.804688 18.792969 49.386719 18.121094 49.9375 17.480469 C 50.164062 17.210938 50.378906 16.96875 50.574219 16.726562 C 50.648438 16.667969 50.660156 16.597656 50.660156 16.539062 Z M 48.933594 16.171875 C 49.359375 16.242188 49.742188 16.328125 50.121094 16.414062 C 49.9375 16.625 49.742188 16.855469 49.527344 17.097656 C 49.1875 17.480469 48.847656 17.878906 48.535156 18.265625 C 48.648438 17.539062 48.792969 16.839844 48.933594 16.171875 Z M 48.367188 16.070312 C 48.152344 17.066406 47.96875 18.109375 47.8125 19.175781 C 47.800781 19.21875 47.800781 19.261719 47.800781 19.289062 C 47.515625 21.414062 47.429688 23.664062 47.855469 25.859375 C 47.585938 25.832031 47.316406 25.804688 47.035156 25.773438 C 46.878906 25.761719 46.707031 25.761719 46.550781 25.761719 C 46.15625 22.484375 46.453125 19.089844 47.472656 15.941406 C 47.785156 16 48.082031 16.027344 48.367188 16.070312 Z M 41.253906 21.285156 L 40.402344 21 C 40.375 21 40.332031 20.988281 40.320312 20.929688 C 40.304688 20.746094 40.363281 20.542969 40.417969 20.332031 L 41.238281 17.496094 C 41.28125 17.351562 41.339844 17.210938 41.410156 17.152344 C 41.453125 17.125 41.507812 17.109375 41.582031 17.109375 C 41.652344 17.109375 41.734375 17.125 41.820312 17.125 C 42.089844 17.167969 42.359375 17.222656 42.628906 17.296875 C 42.472656 17.667969 42.332031 18.023438 42.21875 18.308594 C 41.863281 19.277344 41.539062 20.289062 41.253906 21.285156 Z M 41.609375 23.253906 C 41.453125 22.910156 41.539062 22.46875 41.652344 22.039062 C 41.960938 20.84375 42.332031 19.648438 42.769531 18.492188 C 42.996094 17.835938 43.492188 16.527344 44.160156 15.984375 C 42.871094 18.394531 42.230469 21.171875 42.34375 23.90625 C 42.035156 23.738281 41.734375 23.535156 41.609375 23.253906 Z M 42.925781 24.207031 C 42.742188 21.285156 43.464844 18.277344 44.9375 15.757812 C 45.234375 15.769531 45.53125 15.785156 45.816406 15.8125 C 44.824219 18.035156 44.285156 20.488281 44.230469 22.9375 C 44.214844 23.566406 44.242188 24.277344 44.441406 24.960938 C 43.933594 24.71875 43.421875 24.464844 42.925781 24.207031 Z M 45.164062 25.261719 C 45.164062 25.234375 45.148438 25.203125 45.136719 25.160156 C 44.824219 24.464844 44.796875 23.652344 44.808594 22.9375 C 44.851562 20.515625 45.417969 18.050781 46.425781 15.855469 C 46.582031 15.871094 46.738281 15.886719 46.894531 15.898438 C 45.914062 19.003906 45.601562 22.339844 45.972656 25.589844 C 45.703125 25.488281 45.433594 25.375 45.164062 25.261719 Z M 15.046875 33.652344 C 16.007812 32.65625 17.226562 32.257812 18.089844 32.257812 C 18.402344 32.257812 18.671875 32.316406 18.855469 32.386719 C 18.882812 32.398438 18.925781 32.414062 18.957031 32.414062 C 20.527344 32.570312 22.257812 34.824219 22.339844 36.320312 C 22.425781 37.902344 21.773438 39.738281 21.152344 41.535156 C 20.414062 43.644531 19.71875 45.636719 20.230469 47.089844 C 20.34375 47.417969 20.472656 47.761719 20.613281 48.117188 C 19.222656 47.816406 17.835938 47.519531 16.449219 47.21875 C 16.363281 47.078125 16.292969 46.921875 16.207031 46.777344 C 11.972656 38.742188 13.65625 35.109375 15.046875 33.652344 Z M 9.039062 46.023438 C 9.449219 45.835938 9.917969 45.625 10.128906 45.195312 C 10.425781 44.597656 10.085938 44.042969 9.773438 43.542969 C 9.519531 43.144531 9.292969 42.773438 9.40625 42.445312 C 9.519531 42.160156 9.902344 42.019531 10.328125 41.875 C 10.867188 41.691406 11.460938 41.476562 11.589844 40.851562 C 11.746094 40.09375 11.40625 39.78125 11.007812 39.425781 C 10.738281 39.167969 10.382812 38.855469 10.042969 38.257812 C 9.648438 37.558594 9.605469 36.730469 9.605469 36.320312 C 10.171875 36.347656 11.519531 36.390625 13.105469 36.433594 C 12.695312 38.683594 13.089844 42.074219 15.710938 47.046875 C 15.710938 47.046875 15.710938 47.0625 15.726562 47.0625 C 15.34375 46.976562 14.960938 46.890625 14.578125 46.820312 C 12.28125 46.335938 10.371094 46.136719 8.753906 46.164062 C 8.839844 46.121094 8.9375 46.078125 9.039062 46.023438 Z M 30.417969 67.269531 C 29.085938 67.210938 27.738281 66.585938 26.632812 65.472656 C 25.542969 64.375 24.75 62.949219 23.984375 61.453125 C 22.3125 58.320312 20.65625 55.199219 19.011719 52.078125 C 20.144531 52.234375 21.351562 52.421875 22.597656 52.648438 C 24.863281 57.4375 27.9375 62.964844 30.417969 67.269531 Z M 30.628906 50.894531 C 32.273438 51.222656 33.84375 51.59375 35.203125 52.347656 C 36.550781 53.105469 37.542969 54.246094 37.953125 55.511719 C 31.109375 53.789062 21.605469 51.539062 15.867188 51.195312 C 14.335938 51.109375 12.621094 52.320312 10.808594 53.617188 C 9.265625 54.714844 7.679688 55.839844 6.148438 56.195312 C 4.6875 56.523438 2.070312 55.46875 1.488281 53.988281 C 1.472656 53.960938 1.460938 53.929688 1.429688 53.902344 C 0.890625 53.277344 0.636719 51.496094 1.585938 49.855469 C 2.335938 48.542969 4.25 46.722656 8.9375 46.722656 C 10.457031 46.722656 12.28125 46.90625 14.464844 47.40625 C 19.847656 48.558594 25.230469 49.714844 30.628906 50.894531 Z M 29.324219 46.363281 C 29.054688 47.046875 28.789062 47.746094 28.347656 48.273438 C 27.878906 48.828125 27.230469 49.171875 26.507812 49.398438 C 24.765625 49.03125 23.019531 48.644531 21.277344 48.273438 C 21.09375 47.804688 20.925781 47.347656 20.769531 46.921875 C 20.316406 45.652344 20.980469 43.757812 21.691406 41.746094 C 22.269531 40.109375 22.867188 38.414062 22.921875 36.875 C 25.160156 36.917969 27.242188 36.746094 28.234375 35.949219 C 28.617188 35.648438 28.941406 35.292969 29.253906 34.949219 C 29.609375 34.566406 29.949219 34.210938 30.34375 33.910156 C 31.222656 33.242188 34.894531 32.671875 39.539062 31.957031 C 41.960938 31.589844 44.695312 31.160156 47.574219 30.648438 C 47.542969 31.019531 47.289062 31.460938 47.046875 31.902344 C 46.964844 32.074219 46.863281 32.242188 46.835938 32.472656 C 46.78125 32.96875 47.105469 33.3125 47.386719 33.625 C 47.585938 33.839844 47.769531 34.039062 47.8125 34.265625 C 47.871094 34.582031 47.628906 34.867188 47.347656 35.191406 C 47.046875 35.535156 46.722656 35.933594 46.707031 36.433594 C 46.695312 36.902344 46.964844 37.289062 47.191406 37.644531 C 47.460938 38.042969 47.601562 38.3125 47.515625 38.570312 C 47.460938 38.742188 47.289062 38.871094 47.105469 39.027344 C 46.964844 39.140625 46.820312 39.253906 46.707031 39.398438 C 46.4375 39.722656 46.324219 40.179688 46.425781 40.636719 C 46.46875 40.851562 46.550781 41.035156 46.667969 41.207031 L 44.570312 41.546875 C 40.617188 42.191406 37.203125 42.730469 32.910156 43.285156 C 32.316406 43.371094 31.636719 43.457031 31.054688 43.800781 C 30.105469 44.339844 29.707031 45.367188 29.324219 46.363281 Z M 60.292969 49.542969 L 59.542969 50.453125 C 59.273438 50.78125 58.964844 51.152344 58.582031 51.351562 C 58.128906 51.59375 57.574219 51.609375 56.953125 51.59375 C 49.527344 51.480469 42.105469 50.496094 34.894531 48.703125 C 33.746094 48.417969 32.65625 48.089844 31.917969 47.304688 C 31.691406 47.0625 31.535156 46.804688 31.4375 46.550781 C 31.40625 46.464844 31.378906 46.363281 31.351562 46.265625 C 31.351562 46.222656 31.351562 46.179688 31.351562 46.136719 C 31.210938 45.652344 31.28125 44.96875 31.492188 44.214844 C 31.933594 44 32.484375 43.929688 32.964844 43.871094 C 37.257812 43.316406 40.6875 42.757812 44.640625 42.117188 L 47.316406 41.691406 C 47.445312 41.664062 47.542969 41.578125 47.558594 41.449219 C 47.574219 41.320312 47.515625 41.207031 47.402344 41.148438 C 47.175781 41.035156 47.007812 40.808594 46.949219 40.523438 C 46.894531 40.238281 46.949219 39.953125 47.105469 39.765625 C 47.191406 39.667969 47.304688 39.566406 47.417969 39.480469 C 47.644531 39.296875 47.898438 39.097656 48.011719 38.769531 C 48.195312 38.214844 47.882812 37.742188 47.613281 37.332031 C 47.417969 37.015625 47.21875 36.730469 47.234375 36.445312 C 47.246094 36.148438 47.488281 35.863281 47.742188 35.5625 C 48.070312 35.179688 48.4375 34.738281 48.335938 34.167969 C 48.28125 33.769531 48.011719 33.484375 47.769531 33.226562 C 47.515625 32.941406 47.347656 32.742188 47.375 32.527344 C 47.386719 32.414062 47.445312 32.300781 47.515625 32.171875 C 47.871094 31.515625 48.238281 30.847656 48.070312 30.21875 C 48.027344 30.078125 47.882812 29.992188 47.742188 30.019531 C 45.078125 30.503906 42.542969 30.902344 40.25 31.261719 C 42.726562 28.253906 45.023438 26.144531 46.976562 26.34375 C 48.167969 26.472656 49.300781 26.585938 50.421875 26.714844 C 49.726562 27.898438 49.1875 29.238281 49.511719 30.589844 C 49.867188 32.015625 51.285156 33.199219 52.957031 33.441406 C 53.210938 33.484375 53.480469 33.496094 53.75 33.496094 C 54.839844 33.496094 56.03125 33.167969 57.363281 32.542969 C 59.472656 31.515625 61.300781 29.992188 62.6875 28.097656 C 64.261719 28.269531 65.875 28.453125 67.578125 28.625 C 69.007812 28.765625 69.320312 29.25 69.445312 29.75 C 70.324219 33.128906 63.75 41.277344 57.121094 47.234375 C 56.992188 47.332031 56.992188 47.519531 57.09375 47.632812 C 57.148438 47.703125 57.234375 47.734375 57.304688 47.734375 C 57.375 47.734375 57.433594 47.71875 57.476562 47.675781 C 62.789062 42.917969 67.84375 36.988281 69.503906 32.84375 C 69.984375 32.882812 70.296875 33.054688 70.453125 33.355469 C 71.699219 35.820312 63.410156 45.792969 60.292969 49.542969 Z M 17.425781 44.3125 C 18.390625 44.3125 19.253906 43.570312 19.707031 42.332031 C 19.960938 41.605469 20.597656 39.765625 20.753906 38.214844 C 20.910156 36.773438 20.429688 35.023438 19.027344 34.339844 C 18.316406 33.980469 17.46875 33.980469 16.746094 34.339844 C 15.273438 35.066406 14.902344 36.929688 14.804688 37.972656 C 14.691406 39.238281 14.777344 40.492188 15.058594 41.734375 C 15.386719 43.160156 16.078125 44.054688 17 44.269531 C 17.140625 44.296875 17.285156 44.3125 17.425781 44.3125 Z M 16.984375 34.835938 C 17.269531 34.707031 17.582031 34.636719 17.894531 34.636719 C 18.203125 34.636719 18.515625 34.707031 18.757812 34.824219 C 19.308594 35.09375 19.691406 35.578125 19.917969 36.148438 C 19.707031 36.132812 19.507812 36.121094 19.308594 36.105469 C 18.417969 36.046875 17.566406 35.992188 16.902344 35.976562 C 16.574219 35.960938 16.234375 35.960938 15.910156 35.949219 C 16.148438 35.492188 16.492188 35.078125 16.984375 34.835938 Z M 15.597656 41.578125 C 15.328125 40.410156 15.242188 39.195312 15.355469 38 C 15.398438 37.585938 15.46875 37.046875 15.65625 36.519531 C 16.078125 36.53125 16.492188 36.546875 16.902344 36.546875 C 17.566406 36.5625 18.402344 36.617188 19.296875 36.675781 C 19.566406 36.6875 19.820312 36.71875 20.101562 36.730469 C 20.203125 37.1875 20.230469 37.6875 20.171875 38.128906 C 20.019531 39.625 19.410156 41.40625 19.152344 42.105469 C 18.828125 43.015625 18.105469 43.929688 17.097656 43.6875 C 16.164062 43.472656 15.753906 42.273438 15.597656 41.578125 Z M 9.292969 47.648438 C 8.03125 47.71875 6.800781 47.976562 5.625 48.429688 C 4.660156 48.800781 2.976562 49.683594 2.691406 51.308594 C 2.550781 52.09375 2.789062 52.917969 3.316406 53.519531 C 3.925781 54.214844 4.800781 54.488281 5.695312 54.488281 C 6.320312 54.488281 6.941406 54.359375 7.496094 54.128906 C 8.9375 53.546875 10.527344 52.433594 11.136719 51.980469 C 12.367188 51.066406 12.808594 49.828125 12.253906 48.816406 C 11.800781 47.988281 10.738281 47.574219 9.292969 47.648438 Z M 10.796875 51.539062 C 10.199219 51.980469 8.671875 53.0625 7.28125 53.617188 C 6.132812 54.085938 4.589844 54.117188 3.738281 53.160156 C 3.34375 52.691406 3.144531 52.035156 3.257812 51.421875 C 3.5 50.070312 4.972656 49.300781 5.835938 48.972656 C 6.585938 48.6875 7.367188 48.472656 8.160156 48.34375 C 7.960938 48.644531 7.609375 48.902344 7.125 49.085938 C 7.011719 49.128906 6.925781 49.242188 6.941406 49.371094 C 6.957031 49.5 7.039062 49.597656 7.167969 49.628906 C 8.585938 49.914062 10.144531 50.140625 11.816406 50.3125 C 11.632812 50.796875 11.234375 51.222656 10.796875 51.539062 Z M 8.074219 49.230469 C 8.445312 48.972656 8.699219 48.644531 8.824219 48.273438 C 8.824219 48.273438 8.824219 48.273438 8.824219 48.261719 C 8.996094 48.246094 9.152344 48.230469 9.320312 48.230469 C 9.40625 48.21875 9.507812 48.21875 9.621094 48.21875 C 10.34375 48.21875 11.347656 48.359375 11.746094 49.113281 C 11.859375 49.328125 11.914062 49.542969 11.914062 49.757812 C 10.570312 49.628906 9.28125 49.441406 8.074219 49.230469 Z M 18.417969 50.96875 C 18.585938 51.082031 18.800781 51.136719 19.011719 51.136719 C 19.125 51.136719 19.238281 51.125 19.324219 51.082031 C 19.535156 51.011719 19.820312 50.851562 19.976562 50.425781 C 20.144531 49.941406 19.976562 49.355469 19.566406 49.070312 C 19.125 48.773438 18.488281 48.859375 18.160156 49.273438 C 18.0625 49.398438 17.992188 49.554688 17.949219 49.726562 C 17.851562 50.210938 18.035156 50.710938 18.417969 50.96875 Z M 18.515625 49.855469 C 18.53125 49.769531 18.574219 49.683594 18.617188 49.628906 C 18.699219 49.527344 18.84375 49.472656 18.984375 49.472656 C 19.070312 49.472656 19.167969 49.5 19.253906 49.542969 C 19.453125 49.683594 19.535156 49.984375 19.453125 50.226562 C 19.394531 50.398438 19.296875 50.496094 19.167969 50.539062 C 19.011719 50.597656 18.84375 50.554688 18.742188 50.484375 C 18.558594 50.367188 18.460938 50.097656 18.515625 49.855469 Z M 18.515625 49.855469 " fill-opacity="1" fill-rule="nonzero"/></g></svg>