<svg xmlns="http://www.w3.org/2000/svg" xmlns:xlink="http://www.w3.org/1999/xlink" width="100" zoomAndPan="magnify" viewBox="0 0 75 74.999997" height="100" preserveAspectRatio="xMidYMid meet" version="1.0"><defs><clipPath id="e41774c44f"><path d="M 13 32 L 68 32 L 68 67.78125 L 13 67.78125 Z M 13 32 " clip-rule="nonzero"/></clipPath><clipPath id="874b63d3d4"><path d="M 0 7.03125 L 46 7.03125 L 46 47 L 0 47 Z M 0 7.03125 " clip-rule="nonzero"/></clipPath></defs><path fill="#000000" d="M 54.109375 33.660156 C 54.679688 33.699219 55.253906 33.707031 55.824219 33.734375 C 56.394531 33.757812 56.96875 33.75 57.539062 33.746094 C 58.164062 33.738281 58.746094 33.570312 59.332031 33.367188 C 59.621094 33.269531 59.613281 32.890625 59.332031 32.789062 C 58.746094 32.574219 58.167969 32.394531 57.539062 32.378906 C 56.96875 32.359375 56.394531 32.34375 55.824219 32.355469 C 55.253906 32.371094 54.679688 32.367188 54.109375 32.394531 C 53.59375 32.421875 52.871094 32.464844 52.464844 32.820312 C 52.359375 32.914062 52.363281 33.113281 52.464844 33.207031 C 52.863281 33.570312 53.597656 33.621094 54.109375 33.660156 Z M 54.109375 33.660156 " fill-opacity="1" fill-rule="nonzero"/><path fill="#000000" d="M 45.246094 39.335938 C 45.003906 39.4375 44.992188 39.746094 45.246094 39.847656 C 46.042969 40.164062 46.953125 40.125 47.804688 40.1875 C 48.769531 40.257812 49.734375 40.285156 50.703125 40.308594 C 52.570312 40.347656 54.433594 40.34375 56.296875 40.339844 C 58.164062 40.335938 60.027344 40.328125 61.894531 40.308594 C 63.304688 40.292969 65.589844 40.71875 66.65625 39.574219 C 66.765625 39.457031 66.769531 39.277344 66.65625 39.164062 C 65.574219 38.046875 63.296875 38.507812 61.894531 38.523438 C 60.027344 38.542969 58.164062 38.574219 56.296875 38.609375 C 54.433594 38.648438 52.566406 38.679688 50.703125 38.761719 C 49.734375 38.804688 48.769531 38.851562 47.804688 38.941406 C 46.957031 39.019531 46.03125 39.003906 45.246094 39.335938 Z M 45.246094 39.335938 " fill-opacity="1" fill-rule="nonzero"/><path fill="#000000" d="M 69.324219 40.289062 C 69.402344 40.304688 69.476562 40.324219 69.550781 40.335938 C 69.773438 40.378906 70.007812 40.382812 70.230469 40.394531 C 70.390625 40.402344 70.550781 40.421875 70.707031 40.417969 C 70.992188 40.410156 71.273438 40.328125 71.507812 40.167969 C 71.75 40.007812 71.910156 39.765625 71.910156 39.464844 C 71.910156 39.15625 71.746094 38.9375 71.507812 38.761719 C 71.128906 38.484375 70.683594 38.492188 70.230469 38.496094 C 70 38.5 69.78125 38.5 69.550781 38.53125 C 69.484375 38.542969 69.414062 38.554688 69.347656 38.566406 C 69.304688 38.570312 69.261719 38.574219 69.222656 38.585938 C 69.0625 38.628906 68.945312 38.730469 68.816406 38.828125 C 68.664062 38.949219 68.5625 39.242188 68.570312 39.425781 C 68.578125 39.640625 68.648438 39.878906 68.816406 40.023438 C 68.96875 40.15625 69.128906 40.246094 69.324219 40.289062 Z M 69.324219 40.289062 " fill-opacity="1" fill-rule="nonzero"/><path fill="#000000" d="M 59.792969 48.296875 C 59.984375 48.070312 60.003906 47.757812 59.792969 47.53125 C 59.316406 47.027344 58.707031 47.082031 58.054688 47.089844 C 57.261719 47.101562 56.472656 47.132812 55.679688 47.152344 C 54.097656 47.195312 52.515625 47.226562 50.933594 47.292969 C 49.351562 47.359375 47.761719 47.398438 46.183594 47.507812 C 45.390625 47.5625 44.601562 47.621094 43.808594 47.679688 C 43.152344 47.726562 42.496094 47.683594 41.90625 47.992188 C 41.644531 48.125 41.625 48.582031 41.90625 48.707031 C 42.511719 48.984375 43.152344 48.921875 43.808594 48.9375 C 44.601562 48.953125 45.390625 48.972656 46.183594 48.988281 C 47.765625 49.011719 49.347656 48.972656 50.933594 48.960938 C 52.515625 48.949219 54.097656 48.898438 55.679688 48.863281 C 56.472656 48.84375 57.261719 48.835938 58.054688 48.808594 C 58.703125 48.777344 59.34375 48.820312 59.792969 48.296875 Z M 59.792969 48.296875 " fill-opacity="1" fill-rule="nonzero"/><path fill="#000000" d="M 74.773438 47.816406 C 73.875 47.339844 72.882812 47.230469 71.878906 47.183594 C 70.804688 47.132812 69.730469 47.117188 68.660156 47.132812 C 67.582031 47.148438 66.511719 47.214844 65.441406 47.328125 C 64.546875 47.421875 63.464844 47.429688 62.769531 48.066406 C 62.664062 48.160156 62.691406 48.347656 62.8125 48.410156 C 63.664062 48.859375 64.742188 48.621094 65.671875 48.574219 C 66.664062 48.523438 67.664062 48.488281 68.660156 48.472656 C 69.65625 48.457031 70.652344 48.472656 71.648438 48.515625 C 72.679688 48.558594 73.707031 48.625 74.707031 48.332031 C 74.929688 48.265625 74.996094 47.929688 74.773438 47.816406 Z M 74.773438 47.816406 " fill-opacity="1" fill-rule="nonzero"/><path fill="#000000" d="M 72.871094 53.148438 C 71.96875 52.675781 70.980469 52.5625 69.972656 52.515625 C 68.902344 52.464844 67.828125 52.449219 66.753906 52.464844 C 65.675781 52.484375 64.605469 52.550781 63.535156 52.660156 C 62.640625 52.753906 61.558594 52.765625 60.863281 53.398438 C 60.761719 53.492188 60.785156 53.679688 60.90625 53.746094 C 61.757812 54.195312 62.839844 53.957031 63.765625 53.910156 C 64.757812 53.859375 65.757812 53.824219 66.753906 53.808594 C 67.75 53.792969 68.746094 53.804688 69.742188 53.847656 C 70.773438 53.890625 71.800781 53.960938 72.800781 53.664062 C 73.023438 53.601562 73.089844 53.265625 72.871094 53.148438 Z M 72.871094 53.148438 " fill-opacity="1" fill-rule="nonzero"/><path fill="#000000" d="M 56.921875 52.605469 C 56.566406 52.542969 56.230469 52.535156 55.871094 52.546875 C 55.519531 52.558594 55.183594 52.601562 54.835938 52.652344 C 54.542969 52.695312 54.230469 52.761719 54 52.945312 C 53.96875 52.964844 53.9375 52.976562 53.90625 52.996094 C 53.640625 53.121094 53.640625 53.566406 53.90625 53.695312 C 53.9375 53.710938 53.96875 53.726562 54 53.742188 C 54.230469 53.929688 54.542969 53.996094 54.835938 54.039062 C 55.183594 54.089844 55.523438 54.132812 55.871094 54.140625 C 56.230469 54.152344 56.566406 54.140625 56.921875 54.085938 C 57.277344 54.023438 57.5625 53.796875 57.769531 53.507812 C 57.828125 53.421875 57.828125 53.269531 57.769531 53.183594 C 57.5625 52.890625 57.28125 52.667969 56.921875 52.605469 Z M 56.921875 52.605469 " fill-opacity="1" fill-rule="nonzero"/><path fill="#000000" d="M 23.019531 61.703125 C 22.960938 61.65625 22.902344 61.609375 22.839844 61.5625 C 22.703125 61.480469 22.550781 61.441406 22.390625 61.441406 C 22.269531 61.4375 22.15625 61.460938 22.050781 61.519531 C 21.941406 61.554688 21.84375 61.617188 21.765625 61.703125 C 21.675781 61.78125 21.617188 61.878906 21.582031 61.988281 C 21.523438 62.097656 21.5 62.210938 21.503906 62.332031 C 21.515625 62.410156 21.523438 62.488281 21.535156 62.570312 C 21.578125 62.722656 21.652344 62.851562 21.761719 62.964844 C 21.824219 63.011719 21.882812 63.058594 21.945312 63.105469 C 22.082031 63.183594 22.230469 63.226562 22.390625 63.226562 C 22.515625 63.230469 22.628906 63.203125 22.734375 63.148438 C 22.84375 63.113281 22.9375 63.050781 23.019531 62.964844 C 23.105469 62.882812 23.167969 62.785156 23.203125 62.675781 C 23.257812 62.570312 23.285156 62.457031 23.28125 62.332031 C 23.269531 62.253906 23.257812 62.175781 23.25 62.097656 C 23.207031 61.945312 23.132812 61.8125 23.019531 61.703125 Z M 23.019531 61.703125 " fill-opacity="1" fill-rule="nonzero"/><path fill="#000000" d="M 53.753906 62 C 53.648438 61.894531 53.472656 61.78125 53.324219 61.75 C 53.324219 61.75 53.320312 61.75 53.316406 61.75 C 53.269531 61.730469 53.222656 61.714844 53.167969 61.714844 C 53.0625 61.691406 52.957031 61.695312 52.847656 61.730469 C 52.8125 61.742188 52.765625 61.765625 52.738281 61.777344 C 52.703125 61.792969 52.65625 61.808594 52.621094 61.828125 C 52.542969 61.867188 52.472656 61.933594 52.410156 61.988281 C 52.34375 62.046875 52.296875 62.097656 52.25 62.191406 C 52.214844 62.269531 52.183594 62.34375 52.152344 62.421875 C 52.140625 62.507812 52.128906 62.59375 52.117188 62.679688 C 52.128906 62.765625 52.140625 62.851562 52.152344 62.9375 C 52.179688 63.015625 52.210938 63.097656 52.25 63.171875 C 52.296875 63.261719 52.367188 63.347656 52.4375 63.421875 C 52.523438 63.515625 52.625 63.582031 52.742188 63.621094 C 52.859375 63.679688 52.980469 63.707031 53.109375 63.699219 C 53.195312 63.6875 53.277344 63.679688 53.363281 63.667969 C 53.488281 63.636719 53.59375 63.582031 53.683594 63.496094 C 53.757812 63.453125 53.8125 63.394531 53.855469 63.324219 C 53.9375 63.234375 53.996094 63.125 54.023438 63 C 54.035156 62.917969 54.046875 62.832031 54.058594 62.746094 C 54.058594 62.589844 54.019531 62.441406 53.949219 62.304688 C 53.910156 62.1875 53.84375 62.085938 53.753906 62 Z M 53.753906 62 " fill-opacity="1" fill-rule="nonzero"/><g clip-path="url(#e41774c44f)"><path fill="#000000" d="M 65.011719 61.308594 C 64.25 61.285156 63.484375 61.28125 62.722656 61.292969 C 61.960938 61.300781 61.199219 61.3125 60.4375 61.324219 C 59.808594 61.332031 59.148438 61.3125 58.519531 61.40625 C 58.304688 60.078125 57.484375 58.921875 56.296875 58.148438 C 54.617188 57.046875 52.527344 56.949219 50.847656 58.101562 C 50.464844 58.363281 50.097656 58.664062 49.78125 59.007812 C 49.417969 59.402344 49.007812 59.863281 48.902344 60.40625 C 48.835938 60.75 48.9375 61.070312 49.140625 61.289062 C 48.9375 61.402344 48.792969 61.613281 48.691406 61.863281 C 48.242188 61.71875 47.714844 61.726562 47.261719 61.699219 C 46.335938 61.648438 45.421875 61.667969 44.496094 61.695312 C 42.46875 61.753906 40.4375 61.773438 38.410156 61.753906 C 36.378906 61.734375 34.34375 61.699219 32.316406 61.628906 C 32.03125 61.617188 31.742188 61.605469 31.453125 61.59375 C 31.734375 61.421875 31.917969 61.125 31.828125 60.746094 C 32.1875 56.292969 31.921875 51.703125 31.949219 47.234375 C 31.976562 42.746094 32 38.269531 31.761719 33.785156 C 31.917969 33.792969 32.082031 33.800781 32.246094 33.808594 C 33.121094 33.867188 34.007812 33.839844 34.882812 33.84375 C 36.644531 33.851562 38.402344 33.8125 40.160156 33.785156 C 41.921875 33.757812 43.679688 33.734375 45.4375 33.707031 C 46.316406 33.691406 47.199219 33.699219 48.078125 33.664062 C 48.890625 33.636719 49.355469 33.515625 50.074219 33.183594 C 50.214844 33.117188 50.21875 32.863281 50.074219 32.800781 C 49.351562 32.492188 48.875 32.378906 48.078125 32.375 C 47.199219 32.371094 46.316406 32.402344 45.4375 32.414062 C 43.679688 32.441406 41.921875 32.464844 40.160156 32.492188 C 38.402344 32.519531 36.640625 32.53125 34.882812 32.59375 C 34.007812 32.625 33.121094 32.625 32.246094 32.707031 C 31.78125 32.746094 31.332031 32.738281 30.945312 32.925781 C 30.644531 32.96875 30.367188 33.195312 30.339844 33.601562 C 30.183594 35.972656 30.097656 38.339844 30.050781 40.710938 C 29.605469 40.691406 29.140625 40.75 28.746094 40.753906 C 27.96875 40.761719 27.191406 40.761719 26.414062 40.75 C 25.636719 40.738281 24.859375 40.703125 24.082031 40.710938 C 23.285156 40.714844 22.523438 40.683594 21.769531 40.964844 C 21.511719 41.058594 21.339844 41.304688 21.320312 41.558594 C 20.9375 42.007812 20.695312 42.640625 20.445312 43.121094 C 20.011719 43.945312 19.597656 44.78125 19.191406 45.617188 C 18.386719 47.265625 17.585938 48.914062 16.78125 50.558594 C 16.75 50.605469 16.730469 50.652344 16.714844 50.699219 C 15.945312 50.714844 15.179688 50.757812 14.414062 50.859375 C 13.980469 50.714844 13.492188 50.832031 13.34375 51.457031 C 13.109375 52.445312 13.25 53.484375 13.300781 54.492188 C 13.347656 55.464844 13.433594 56.433594 13.5 57.402344 C 13.640625 59.382812 13.78125 61.363281 13.921875 63.34375 C 13.964844 63.945312 14.402344 64.484375 15.046875 64.472656 C 15.734375 64.460938 16.425781 64.453125 17.113281 64.433594 C 17.347656 64.425781 17.597656 64.421875 17.84375 64.398438 C 17.96875 64.871094 18.171875 65.328125 18.445312 65.710938 C 19.710938 67.488281 22.042969 67.765625 23.976562 67.007812 C 25.757812 66.304688 27.417969 64.832031 27.75 62.851562 C 27.757812 62.792969 27.761719 62.738281 27.769531 62.679688 C 29.140625 63.328125 30.859375 63.382812 32.316406 63.46875 C 34.414062 63.589844 36.511719 63.660156 38.613281 63.667969 C 40.640625 63.675781 42.667969 63.648438 44.695312 63.578125 C 45.628906 63.546875 46.554688 63.472656 47.480469 63.324219 C 47.800781 63.273438 48.144531 63.226562 48.457031 63.132812 C 48.457031 63.210938 48.453125 63.285156 48.457031 63.351562 C 48.464844 64.167969 48.730469 65.046875 49.207031 65.710938 C 50.472656 67.488281 52.804688 67.765625 54.738281 67.007812 C 56.480469 66.320312 58.105469 64.890625 58.480469 62.972656 C 59.121094 63.078125 59.796875 63.066406 60.433594 63.082031 C 61.195312 63.105469 61.957031 63.125 62.71875 63.144531 C 63.480469 63.167969 64.246094 63.167969 65.007812 63.160156 C 65.792969 63.152344 66.589844 63.039062 67.195312 62.5 C 67.335938 62.375 67.335938 62.113281 67.195312 61.984375 C 66.597656 61.4375 65.796875 61.328125 65.011719 61.308594 Z M 25.53125 63.351562 C 25.09375 64.152344 24.398438 64.714844 23.5625 65.105469 C 22.75 65.484375 21.609375 65.746094 20.703125 65.394531 C 20.03125 65.128906 19.5625 64.539062 19.324219 63.84375 C 19.292969 63.761719 19.265625 63.675781 19.242188 63.589844 C 19.359375 63.292969 19.316406 62.96875 19.074219 62.699219 C 19.074219 62.695312 19.070312 62.695312 19.070312 62.691406 C 19.066406 62.675781 19.066406 62.664062 19.066406 62.648438 C 19.042969 62.324219 19.097656 61.90625 18.996094 61.578125 C 19.15625 61.585938 19.328125 61.546875 19.496094 61.453125 C 19.992188 61.171875 20.207031 60.628906 20.589844 60.25 C 20.890625 59.953125 21.101562 59.789062 21.46875 59.585938 C 21.5625 59.53125 21.660156 59.484375 21.757812 59.441406 C 21.773438 59.433594 21.796875 59.425781 21.835938 59.410156 C 21.941406 59.375 22.042969 59.339844 22.152344 59.3125 C 22.1875 59.304688 22.453125 59.253906 22.445312 59.25 C 23.226562 59.164062 23.875 59.421875 24.546875 59.859375 C 25.761719 60.652344 26.265625 61.996094 25.53125 63.351562 Z M 21.730469 59.449219 C 21.714844 59.453125 21.707031 59.457031 21.730469 59.449219 Z M 25.539062 58.148438 C 23.859375 57.046875 21.769531 56.949219 20.085938 58.101562 C 19.703125 58.363281 19.335938 58.664062 19.023438 59.007812 C 18.660156 59.402344 18.246094 59.863281 18.140625 60.40625 C 18.074219 60.75 18.179688 61.070312 18.378906 61.289062 C 18.09375 61.449219 17.925781 61.800781 17.828125 62.183594 C 17.589844 62.167969 17.347656 62.175781 17.117188 62.175781 C 16.773438 62.179688 16.429688 62.1875 16.085938 62.195312 C 15.972656 60.597656 15.855469 59.003906 15.738281 57.410156 C 15.667969 56.4375 15.613281 55.464844 15.523438 54.496094 C 15.460938 53.859375 15.445312 53.171875 15.34375 52.511719 C 17.046875 52.964844 18.859375 53.007812 20.621094 53.007812 C 22.808594 53.003906 25.085938 52.945312 27.242188 52.542969 C 28.511719 52.304688 28.234375 50.164062 26.933594 50.261719 C 24.78125 50.429688 22.660156 50.703125 20.492188 50.722656 C 19.800781 50.726562 19.113281 50.714844 18.425781 50.703125 C 19.128906 49.234375 19.828125 47.765625 20.535156 46.296875 C 20.921875 45.480469 21.304688 44.667969 21.671875 43.839844 C 21.867188 43.40625 22.152344 42.90625 22.3125 42.402344 C 22.824219 42.558594 23.347656 42.621094 23.902344 42.683594 C 24.707031 42.773438 25.515625 42.808594 26.324219 42.839844 C 27.101562 42.867188 27.878906 42.886719 28.65625 42.894531 C 29.046875 42.898438 29.542969 42.953125 30.015625 42.925781 C 29.996094 44.359375 29.988281 45.796875 29.980469 47.234375 C 29.953125 51.738281 29.625 56.367188 29.949219 60.859375 C 29.972656 61.191406 30.109375 61.421875 30.292969 61.5625 C 29.445312 61.5625 28.589844 61.628906 27.804688 61.863281 C 27.722656 60.34375 26.859375 59.011719 25.539062 58.148438 Z M 52.492188 59.449219 C 52.476562 59.453125 52.46875 59.457031 52.492188 59.449219 Z M 56.289062 63.351562 C 55.855469 64.152344 55.160156 64.714844 54.324219 65.105469 C 53.511719 65.484375 52.371094 65.746094 51.464844 65.394531 C 50.789062 65.128906 50.324219 64.539062 50.082031 63.84375 C 49.953125 63.464844 49.851562 63.050781 49.824219 62.648438 C 49.804688 62.324219 49.855469 61.90625 49.753906 61.578125 C 49.914062 61.585938 50.085938 61.546875 50.257812 61.453125 C 50.753906 61.171875 50.96875 60.628906 51.347656 60.25 C 51.648438 59.953125 51.859375 59.789062 52.230469 59.585938 C 52.324219 59.53125 52.417969 59.484375 52.515625 59.441406 C 52.535156 59.433594 52.558594 59.425781 52.597656 59.410156 C 52.699219 59.375 52.804688 59.339844 52.910156 59.3125 C 52.945312 59.304688 53.210938 59.253906 53.207031 59.25 C 53.984375 59.164062 54.632812 59.421875 55.304688 59.859375 C 56.523438 60.652344 57.027344 61.996094 56.289062 63.351562 Z M 56.289062 63.351562 " fill-opacity="1" fill-rule="nonzero"/></g><g clip-path="url(#874b63d3d4)"><path fill="#000000" d="M 6.953125 40.433594 C 5.859375 38.226562 4.964844 35.992188 4.519531 33.558594 C 3.617188 28.65625 4.636719 23.535156 7.460938 19.429688 C 10.265625 15.355469 14.714844 12.480469 19.488281 11.359375 C 24.507812 10.1875 29.644531 11.253906 33.949219 14.046875 C 36.234375 15.53125 38.257812 17.492188 39.785156 19.757812 C 40.570312 20.917969 41.257812 22.160156 41.847656 23.429688 C 42.125 24.027344 42.367188 24.652344 42.667969 25.238281 C 42.992188 25.871094 43.503906 26.171875 43.808594 26.808594 C 44.085938 27.394531 44.933594 27.066406 44.957031 26.496094 C 44.980469 25.871094 45.285156 25.367188 45.269531 24.753906 C 45.246094 24.050781 45.007812 23.28125 44.789062 22.617188 C 44.328125 21.214844 43.675781 19.878906 42.894531 18.632812 C 41.386719 16.234375 39.46875 14.128906 37.238281 12.394531 C 32.640625 8.816406 26.828125 7.050781 21.027344 7.792969 C 9.273438 9.300781 0 19.777344 1.023438 31.828125 C 1.292969 35.007812 2.125 38.183594 3.6875 40.972656 C 4.480469 42.398438 5.554688 43.664062 6.707031 44.8125 C 7.746094 45.84375 8.683594 46.90625 10.230469 46.824219 C 10.390625 46.8125 10.472656 46.683594 10.449219 46.53125 C 10.277344 45.347656 9.644531 44.75 8.9375 43.820312 C 8.144531 42.773438 7.53125 41.609375 6.953125 40.433594 Z M 6.953125 40.433594 " fill-opacity="1" fill-rule="nonzero"/></g><path fill="#000000" d="M 25.480469 28.609375 C 25.484375 26.953125 25.464844 25.300781 25.421875 23.648438 C 25.378906 21.992188 25.289062 20.34375 25.175781 18.6875 C 25.078125 17.1875 25.0625 15.414062 24.402344 14.039062 C 24.207031 13.636719 23.621094 13.78125 23.5 14.15625 C 23.027344 15.660156 23.277344 17.5 23.324219 19.058594 C 23.371094 20.648438 23.398438 22.242188 23.429688 23.832031 C 23.464844 25.421875 23.476562 27.015625 23.46875 28.609375 C 23.464844 28.90625 23.457031 29.199219 23.449219 29.492188 C 23.417969 29.464844 23.386719 29.4375 23.355469 29.414062 C 22.519531 28.734375 21.664062 28.070312 20.773438 27.464844 C 19.945312 26.902344 19.078125 26.390625 18.203125 25.90625 C 17.242188 25.371094 16.277344 24.863281 15.1875 24.648438 C 14.785156 24.566406 14.367188 24.699219 14.148438 25.074219 C 13.957031 25.402344 13.984375 25.933594 14.292969 26.191406 C 15.09375 26.863281 15.964844 27.347656 16.855469 27.878906 C 17.742188 28.40625 18.605469 28.976562 19.449219 29.566406 C 20.230469 30.113281 21.007812 30.667969 21.75 31.269531 C 22.128906 31.574219 22.5 31.886719 22.867188 32.210938 C 23.238281 32.53125 23.589844 32.828125 24.019531 32.945312 C 24.058594 33.019531 24.105469 33.09375 24.152344 33.167969 C 24.28125 33.371094 24.535156 33.351562 24.667969 33.167969 C 24.726562 33.089844 24.777344 33.007812 24.828125 32.925781 C 25.21875 32.785156 25.417969 32.363281 25.457031 31.972656 C 25.480469 31.785156 25.445312 31.605469 25.378906 31.4375 C 25.542969 30.535156 25.480469 29.582031 25.480469 28.609375 Z M 25.480469 28.609375 " fill-opacity="1" fill-rule="nonzero"/><path fill="#000000" d="M 12.46875 18.746094 C 9.585938 20.207031 7.964844 23.300781 7.039062 26.304688 C 6.574219 27.8125 6.308594 29.394531 6.304688 30.972656 C 6.304688 31.78125 6.335938 32.613281 6.496094 33.40625 C 6.609375 33.980469 6.714844 34.902344 7.265625 35.214844 C 7.378906 35.277344 7.507812 35.234375 7.578125 35.132812 C 7.902344 34.664062 7.6875 33.90625 7.675781 33.363281 C 7.652344 32.605469 7.609375 31.851562 7.644531 31.09375 C 7.714844 29.597656 7.964844 28.109375 8.402344 26.679688 C 9.289062 23.816406 11.105469 21.484375 12.769531 19.046875 C 12.902344 18.851562 12.648438 18.652344 12.46875 18.746094 Z M 12.46875 18.746094 " fill-opacity="1" fill-rule="nonzero"/><path fill="#000000" d="M 13.546875 17.628906 C 13.695312 17.714844 13.855469 17.757812 14.023438 17.761719 C 14.15625 17.765625 14.277344 17.738281 14.390625 17.679688 C 14.507812 17.640625 14.609375 17.574219 14.695312 17.480469 C 14.789062 17.394531 14.855469 17.292969 14.894531 17.171875 C 14.953125 17.058594 14.980469 16.9375 14.976562 16.804688 C 14.964844 16.722656 14.953125 16.636719 14.941406 16.550781 C 14.894531 16.390625 14.8125 16.25 14.695312 16.132812 C 14.632812 16.082031 14.566406 16.03125 14.503906 15.984375 C 14.355469 15.898438 14.195312 15.855469 14.023438 15.851562 C 13.894531 15.847656 13.773438 15.875 13.660156 15.933594 C 13.542969 15.972656 13.441406 16.039062 13.355469 16.132812 C 13.261719 16.21875 13.195312 16.320312 13.15625 16.4375 C 13.097656 16.554688 13.070312 16.675781 13.074219 16.804688 C 13.085938 16.890625 13.097656 16.976562 13.109375 17.0625 C 13.152344 17.222656 13.238281 17.363281 13.355469 17.480469 C 13.417969 17.53125 13.480469 17.582031 13.546875 17.628906 Z M 13.546875 17.628906 " fill-opacity="1" fill-rule="nonzero"/></svg>