<svg xmlns="http://www.w3.org/2000/svg" xmlns:xlink="http://www.w3.org/1999/xlink" width="100" zoomAndPan="magnify" viewBox="0 0 75 74.999997" height="100" preserveAspectRatio="xMidYMid meet" version="1.0"><defs><clipPath id="35108cff96"><path d="M 28.523438 62.535156 L 30.296875 62.535156 L 30.296875 67.40625 L 28.523438 67.40625 Z M 28.523438 62.535156 " clip-rule="nonzero"/></clipPath><clipPath id="4de14598c0"><path d="M 23 35.535156 L 56 35.535156 L 56 67.40625 L 23 67.40625 Z M 23 35.535156 " clip-rule="nonzero"/></clipPath><clipPath id="ac1a681d79"><path d="M 29 9.65625 L 46 9.65625 L 46 26 L 29 26 Z M 29 9.65625 " clip-rule="nonzero"/></clipPath><clipPath id="0aaa085401"><path d="M 58.109375 28.898438 L 75 28.898438 L 75 45.097656 L 58.109375 45.097656 Z M 58.109375 28.898438 " clip-rule="nonzero"/></clipPath></defs><path fill="#2e2a2b" d="M 37.101562 47.058594 C 33.628906 47.058594 30.800781 44.234375 30.800781 40.769531 C 30.800781 37.300781 33.628906 34.476562 37.101562 34.476562 C 40.574219 34.476562 43.402344 37.300781 43.402344 40.769531 C 43.402344 44.234375 40.574219 47.058594 37.101562 47.058594 Z M 37.101562 32.898438 C 32.757812 32.898438 29.21875 36.429688 29.21875 40.769531 C 29.21875 45.105469 32.757812 48.636719 37.101562 48.636719 C 41.449219 48.636719 44.984375 45.105469 44.984375 40.769531 C 44.984375 36.429688 41.449219 32.898438 37.101562 32.898438 " fill-opacity="1" fill-rule="nonzero"/><g clip-path="url(#35108cff96)"><path fill="#2e2a2b" d="M 29.738281 62.597656 C 29.320312 62.476562 28.863281 62.710938 28.761719 63.136719 C 28.378906 64.714844 28.601562 66.472656 28.621094 66.679688 C 28.652344 67.109375 29.023438 67.429688 29.449219 67.40625 C 29.457031 67.40625 29.464844 67.40625 29.46875 67.40625 C 29.90625 67.371094 30.230469 66.992188 30.195312 66.554688 C 30.191406 66.507812 30.070312 65.101562 30.28125 63.574219 C 30.339844 63.144531 30.160156 62.71875 29.738281 62.597656 " fill-opacity="1" fill-rule="nonzero"/></g><g clip-path="url(#4de14598c0)"><path fill="#2e2a2b" d="M 55.945312 39.0625 C 55.746094 37.097656 54.078125 35.5625 52.058594 35.5625 C 49.902344 35.5625 48.148438 37.3125 48.148438 39.464844 C 48.148438 43.855469 45.207031 50.363281 38.902344 50.394531 C 38.898438 50.394531 38.898438 50.394531 38.894531 50.394531 C 38.890625 50.394531 38.886719 50.394531 38.886719 50.394531 C 36.796875 50.394531 32.890625 50.570312 31.355469 50.773438 C 29.546875 51.015625 28.191406 51.492188 27.082031 52.285156 C 25.824219 53.179688 24.898438 54.484375 24.246094 56.273438 C 23.585938 58.082031 23.195312 60.433594 23.042969 63.464844 C 22.957031 65.207031 23.042969 66.605469 23.046875 66.664062 C 23.070312 67.085938 23.417969 67.40625 23.832031 67.40625 C 23.851562 67.40625 23.867188 67.40625 23.882812 67.40625 C 24.316406 67.378906 24.648438 67.003906 24.625 66.570312 C 24.625 66.554688 24.542969 65.191406 24.625 63.542969 C 24.765625 60.671875 25.128906 58.472656 25.730469 56.8125 C 26.269531 55.335938 27.011719 54.273438 28 53.570312 C 29.90625 52.210938 34.972656 51.976562 38.324219 51.972656 C 38.335938 51.972656 38.347656 51.972656 38.359375 51.972656 C 38.359375 51.972656 38.367188 51.972656 38.378906 51.972656 C 38.378906 51.972656 38.382812 51.972656 38.382812 51.972656 L 38.894531 51.972656 C 38.898438 51.972656 38.898438 51.972656 38.898438 51.972656 C 40.710938 51.964844 42.378906 51.519531 43.859375 50.644531 C 45.15625 49.875 46.289062 48.789062 47.230469 47.417969 C 48.035156 46.242188 48.6875 44.847656 49.125 43.382812 C 49.519531 42.054688 49.730469 40.699219 49.730469 39.464844 C 49.730469 38.183594 50.773438 37.140625 52.058594 37.140625 C 53.339844 37.140625 54.386719 38.183594 54.386719 39.464844 C 54.386719 44.820312 52.132812 51.882812 47.195312 54.78125 C 46.253906 55.164062 45.472656 56.050781 44.878906 57.425781 C 44.4375 58.445312 44.085938 59.757812 43.832031 61.320312 C 43.40625 63.9375 43.402344 66.355469 43.402344 66.457031 C 43.402344 66.890625 43.757812 67.246094 44.191406 67.246094 C 44.628906 67.246094 44.984375 66.890625 44.984375 66.457031 C 44.984375 66.433594 44.988281 64.046875 45.394531 61.554688 C 45.628906 60.125 45.945312 58.945312 46.332031 58.046875 C 46.757812 57.070312 47.265625 56.445312 47.808594 56.238281 C 47.855469 56.222656 47.894531 56.203125 47.9375 56.175781 C 49.332031 55.371094 50.589844 54.257812 51.675781 52.875 C 51.675781 52.875 54.042969 50.171875 55.203125 45.449219 C 56.0625 41.957031 55.988281 39.628906 55.988281 39.628906 C 55.988281 39.433594 55.972656 39.246094 55.945312 39.0625 " fill-opacity="1" fill-rule="nonzero"/></g><g clip-path="url(#ac1a681d79)"><path fill="#2e2a2b" d="M 35.285156 16.320312 C 35.582031 16.304688 35.84375 16.128906 35.96875 15.859375 L 37.5625 12.367188 L 39.078125 15.710938 C 39.195312 15.96875 39.441406 16.144531 39.722656 16.171875 L 43.316406 16.515625 L 40.558594 19.035156 C 40.347656 19.230469 40.257812 19.523438 40.324219 19.800781 L 41.1875 23.449219 L 37.964844 21.59375 C 37.71875 21.453125 37.421875 21.453125 37.175781 21.59375 L 33.859375 23.476562 L 34.707031 19.703125 C 34.769531 19.425781 34.679688 19.136719 34.472656 18.945312 L 31.816406 16.496094 Z M 29.351562 16.382812 L 33.058594 19.800781 L 31.917969 24.878906 C 31.847656 25.183594 31.96875 25.5 32.222656 25.6875 C 32.472656 25.875 32.8125 25.894531 33.085938 25.738281 L 37.566406 23.195312 L 41.988281 25.738281 C 42.109375 25.808594 42.246094 25.84375 42.382812 25.84375 C 42.550781 25.84375 42.71875 25.789062 42.859375 25.6875 C 43.113281 25.496094 43.230469 25.175781 43.15625 24.867188 L 41.976562 19.890625 L 45.703125 16.480469 C 45.933594 16.269531 46.019531 15.941406 45.921875 15.644531 C 45.820312 15.347656 45.554688 15.136719 45.242188 15.105469 L 40.332031 14.636719 L 38.292969 10.125 C 38.164062 9.839844 37.882812 9.65625 37.570312 9.65625 C 37.570312 9.65625 37.570312 9.65625 37.566406 9.65625 C 37.257812 9.65625 36.976562 9.839844 36.847656 10.121094 L 34.722656 14.761719 L 29.851562 15.007812 C 29.53125 15.027344 29.253906 15.230469 29.144531 15.53125 C 29.035156 15.832031 29.117188 16.167969 29.351562 16.382812 " fill-opacity="1" fill-rule="nonzero"/></g><path fill="#2e2a2b" d="M 53.613281 20.96875 C 53.90625 20.957031 54.171875 20.777344 54.292969 20.507812 L 55.890625 17.015625 L 57.402344 20.359375 C 57.519531 20.617188 57.765625 20.796875 58.050781 20.820312 L 61.640625 21.164062 L 58.886719 23.683594 C 58.671875 23.878906 58.582031 24.171875 58.648438 24.453125 L 59.515625 28.097656 L 56.289062 26.246094 C 56.046875 26.105469 55.746094 26.101562 55.5 26.242188 L 52.1875 28.125 L 53.035156 24.351562 C 53.097656 24.074219 53.007812 23.789062 52.796875 23.597656 L 50.144531 21.148438 Z M 47.679688 21.035156 L 51.386719 24.449219 L 50.246094 29.527344 C 50.175781 29.832031 50.292969 30.152344 50.546875 30.339844 C 50.800781 30.523438 51.140625 30.546875 51.410156 30.390625 L 55.890625 27.84375 L 60.3125 30.386719 C 60.4375 30.457031 60.574219 30.492188 60.710938 30.492188 C 60.878906 30.492188 61.042969 30.441406 61.183594 30.335938 C 61.4375 30.148438 61.554688 29.824219 61.484375 29.519531 L 60.300781 24.539062 L 64.03125 21.128906 C 64.261719 20.917969 64.347656 20.589844 64.246094 20.292969 C 64.144531 19.996094 63.882812 19.785156 63.570312 19.753906 L 58.660156 19.289062 L 56.617188 14.773438 C 56.488281 14.488281 56.207031 14.308594 55.894531 14.308594 C 55.582031 14.308594 55.300781 14.488281 55.171875 14.769531 L 53.050781 19.410156 L 48.175781 19.660156 C 47.859375 19.675781 47.582031 19.878906 47.472656 20.179688 C 47.363281 20.480469 47.445312 20.816406 47.679688 21.035156 " fill-opacity="1" fill-rule="nonzero"/><g clip-path="url(#0aaa085401)"><path fill="#2e2a2b" d="M 69.597656 38.285156 C 69.386719 38.480469 69.296875 38.773438 69.363281 39.054688 L 70.226562 42.699219 L 67.003906 40.84375 C 66.757812 40.707031 66.460938 40.703125 66.214844 40.84375 L 62.902344 42.726562 L 63.75 38.953125 C 63.808594 38.675781 63.71875 38.390625 63.511719 38.195312 L 60.855469 35.75 L 64.324219 35.570312 C 64.621094 35.558594 64.882812 35.378906 65.007812 35.109375 L 66.601562 31.617188 L 68.117188 34.960938 C 68.234375 35.21875 68.480469 35.394531 68.765625 35.421875 L 72.355469 35.765625 Z M 74.960938 34.894531 C 74.859375 34.597656 74.59375 34.386719 74.28125 34.355469 L 69.375 33.890625 L 67.332031 29.375 C 67.203125 29.089844 66.921875 28.910156 66.609375 28.90625 C 66.296875 28.90625 66.015625 29.089844 65.886719 29.371094 L 63.761719 34.011719 L 58.890625 34.261719 C 58.570312 34.277344 58.292969 34.480469 58.183594 34.78125 C 58.074219 35.082031 58.15625 35.417969 58.390625 35.632812 L 62.097656 39.050781 L 60.957031 44.128906 C 60.890625 44.433594 61.007812 44.753906 61.261719 44.9375 C 61.511719 45.125 61.851562 45.148438 62.125 44.992188 L 66.605469 42.445312 L 71.027344 44.988281 C 71.148438 45.058594 71.285156 45.09375 71.421875 45.09375 C 71.589844 45.09375 71.757812 45.042969 71.898438 44.9375 C 72.152344 44.75 72.269531 44.425781 72.195312 44.121094 L 71.015625 39.140625 L 74.742188 35.730469 C 74.972656 35.519531 75.058594 35.191406 74.960938 34.894531 " fill-opacity="1" fill-rule="nonzero"/></g><path fill="#2e2a2b" d="M 19.558594 26.242188 C 19.4375 26.171875 19.300781 26.136719 19.164062 26.136719 C 19.027344 26.136719 18.890625 26.171875 18.769531 26.246094 L 15.546875 28.097656 L 16.410156 24.453125 C 16.476562 24.171875 16.386719 23.878906 16.175781 23.683594 L 13.417969 21.164062 L 17.007812 20.820312 C 17.292969 20.796875 17.539062 20.617188 17.65625 20.359375 L 19.167969 17.015625 L 20.765625 20.507812 C 20.890625 20.777344 21.152344 20.957031 21.449219 20.972656 L 24.917969 21.148438 L 22.261719 23.597656 C 22.054688 23.789062 21.964844 24.074219 22.023438 24.351562 L 22.871094 28.125 Z M 24.511719 30.339844 C 24.765625 30.152344 24.882812 29.832031 24.816406 29.527344 L 23.675781 24.449219 L 27.378906 21.03125 C 27.617188 20.816406 27.695312 20.480469 27.589844 20.179688 C 27.480469 19.878906 27.203125 19.675781 26.882812 19.660156 L 22.011719 19.410156 L 19.886719 14.769531 C 19.757812 14.488281 19.476562 14.308594 19.164062 14.308594 C 18.851562 14.308594 18.570312 14.488281 18.441406 14.773438 L 16.398438 19.289062 L 11.492188 19.753906 C 11.179688 19.785156 10.914062 19.996094 10.8125 20.292969 C 10.714844 20.589844 10.796875 20.917969 11.03125 21.128906 L 14.757812 24.539062 L 13.578125 29.519531 C 13.503906 29.824219 13.621094 30.148438 13.875 30.335938 C 14.015625 30.441406 14.183594 30.492188 14.351562 30.492188 C 14.488281 30.492188 14.625 30.457031 14.746094 30.386719 L 19.167969 27.84375 L 23.648438 30.390625 C 23.921875 30.546875 24.261719 30.523438 24.511719 30.339844 " fill-opacity="1" fill-rule="nonzero"/><path fill="#2e2a2b" d="M 11.546875 38.195312 C 11.339844 38.390625 11.25 38.675781 11.3125 38.953125 L 12.160156 42.726562 L 8.84375 40.84375 C 8.722656 40.773438 8.585938 40.738281 8.453125 40.738281 C 8.316406 40.738281 8.179688 40.773438 8.054688 40.84375 L 4.832031 42.699219 L 5.695312 39.054688 C 5.761719 38.773438 5.671875 38.480469 5.460938 38.285156 L 2.707031 35.765625 L 6.296875 35.421875 C 6.578125 35.394531 6.828125 35.21875 6.945312 34.960938 L 8.457031 31.617188 L 10.050781 35.109375 C 10.175781 35.378906 10.4375 35.558594 10.734375 35.570312 L 14.203125 35.746094 Z M 16.167969 34.261719 L 11.296875 34.011719 L 9.175781 29.371094 C 9.046875 29.089844 8.761719 28.90625 8.449219 28.90625 C 8.140625 28.910156 7.855469 29.089844 7.730469 29.375 L 5.6875 33.890625 L 0.777344 34.355469 C 0.464844 34.386719 0.199219 34.597656 0.101562 34.894531 C 0 35.191406 0.0859375 35.519531 0.316406 35.730469 L 4.042969 39.140625 L 2.863281 44.121094 C 2.792969 44.425781 2.910156 44.75 3.164062 44.9375 C 3.300781 45.042969 3.46875 45.09375 3.636719 45.09375 C 3.773438 45.09375 3.910156 45.058594 4.03125 44.988281 L 8.453125 42.445312 L 12.933594 44.992188 C 13.207031 45.144531 13.546875 45.125 13.800781 44.9375 C 14.050781 44.753906 14.171875 44.433594 14.101562 44.128906 L 12.960938 39.050781 L 16.667969 35.632812 C 16.902344 35.417969 16.984375 35.082031 16.875 34.78125 C 16.765625 34.480469 16.488281 34.277344 16.167969 34.261719 " fill-opacity="1" fill-rule="nonzero"/></svg>