<svg xmlns="http://www.w3.org/2000/svg" xmlns:xlink="http://www.w3.org/1999/xlink" width="100" zoomAndPan="magnify" viewBox="0 0 75 74.999997" height="100" preserveAspectRatio="xMidYMid meet" version="1.0"><defs><clipPath id="54ed260bf8"><path d="M 6.328125 0 L 68.578125 0 L 68.578125 75 L 6.328125 75 Z M 6.328125 0 " clip-rule="nonzero"/></clipPath></defs><g clip-path="url(#54ed260bf8)"><path fill="#000000" d="M 21.226562 52.667969 C 23.664062 52.109375 25.710938 50.648438 27.972656 49.65625 C 29.035156 49.191406 30.136719 48.816406 31.257812 48.53125 C 31.332031 50.34375 32.964844 51.074219 34.691406 51.324219 C 35.300781 53.632812 38.695312 53.132812 39.277344 51.125 C 40.078125 50.949219 40.855469 50.679688 41.496094 50.242188 C 42.226562 49.75 42.664062 48.90625 42.539062 48.082031 C 43.597656 47.914062 44.667969 47.828125 45.742188 47.8125 C 47.839844 47.800781 49.9375 48.105469 51.941406 48.71875 C 49.285156 48.789062 46.625 48.847656 43.964844 48.917969 C 43.035156 48.9375 43.03125 50.386719 43.964844 50.363281 L 53.976562 50.121094 C 55.574219 50.082031 57.207031 49.933594 58.804688 50.050781 C 60.019531 50.136719 61.546875 50.628906 61.863281 51.90625 C 61.125 51.863281 60.390625 51.886719 59.722656 51.886719 C 54.46875 51.875 49.21875 51.917969 43.964844 52.011719 C 43.035156 52.023438 43.03125 53.472656 43.964844 53.453125 C 47.917969 53.386719 51.875 53.34375 55.828125 53.332031 C 57.753906 53.324219 59.691406 53.28125 61.617188 53.34375 C 62.496094 53.367188 63.484375 53.460938 64.152344 54.097656 C 64.722656 54.636719 64.871094 55.753906 63.925781 55.972656 C 63.773438 56.007812 63.65625 56.078125 63.578125 56.164062 C 60.722656 55.085938 57.386719 55.140625 54.453125 55.761719 C 53.425781 55.976562 52.503906 56.078125 51.453125 55.957031 C 50.492188 55.847656 49.554688 55.71875 48.582031 55.710938 C 46.65625 55.699219 44.738281 56.027344 42.917969 56.640625 C 42.039062 56.9375 42.417969 58.332031 43.300781 58.035156 C 44.695312 57.5625 46.128906 57.261719 47.597656 57.179688 C 49.089844 57.097656 50.511719 57.355469 51.984375 57.457031 C 53.457031 57.5625 54.820312 57.082031 56.261719 56.902344 C 57.714844 56.714844 59.214844 56.722656 60.65625 56.945312 C 61.523438 57.082031 63.6875 57.273438 64.160156 58.207031 C 64.863281 59.609375 61.367188 59.933594 60.667969 60.070312 C 57.582031 60.65625 54.496094 61.238281 51.410156 61.828125 C 48.019531 62.472656 44.621094 63.117188 41.226562 63.761719 C 41.183594 63.773438 41.140625 63.789062 41.105469 63.800781 C 38.714844 61.878906 35.84375 60.476562 32.972656 59.617188 C 32.742188 58.066406 32.210938 56.214844 30.992188 55.132812 C 30.582031 54.769531 29.703125 54.351562 29.550781 55.164062 C 29.476562 55.585938 30.027344 56.195312 30.253906 56.503906 C 31.035156 57.535156 31.488281 58.898438 31.597656 60.179688 C 31.628906 60.503906 31.800781 60.78125 32.128906 60.875 C 35.503906 61.816406 38.640625 63.503906 41.234375 65.871094 C 42.460938 66.992188 43.671875 68.3125 44.050781 69.980469 C 44.222656 70.75 44.210938 71.566406 43.933594 72.304688 C 43.796875 72.65625 43.585938 73.105469 43.257812 73.320312 C 42.714844 73.6875 42.472656 73.339844 42.179688 72.886719 C 41.402344 71.660156 40.640625 70.65625 39.320312 69.949219 C 38.085938 69.28125 36.703125 68.9375 35.316406 68.769531 C 33.535156 68.554688 31.734375 68.640625 29.957031 68.449219 C 28.09375 68.25 26.410156 67.636719 24.847656 66.609375 C 24.222656 66.203125 23.632812 65.753906 23.058594 65.28125 C 22.835938 65.089844 22.117188 65.1875 21.839844 65.199219 C 20.167969 65.28125 18.488281 65.523438 16.820312 65.679688 C 15.078125 65.84375 13.335938 66.011719 11.59375 66.179688 C 10.679688 66.265625 10.667969 67.710938 11.59375 67.625 L 22.136719 66.621094 C 22.214844 66.613281 22.289062 66.589844 22.359375 66.5625 C 22.488281 66.664062 22.617188 66.769531 22.746094 66.875 C 24.308594 68.089844 26.039062 69.113281 27.976562 69.578125 C 30.09375 70.085938 32.277344 69.972656 34.433594 70.132812 C 36.226562 70.265625 38.191406 70.667969 39.605469 71.871094 C 40.703125 72.800781 41.179688 74.996094 42.886719 74.964844 C 44.601562 74.925781 45.46875 72.855469 45.589844 71.410156 C 45.746094 69.546875 44.917969 67.824219 43.761719 66.410156 C 43.359375 65.917969 42.917969 65.449219 42.460938 65.003906 C 49.261719 63.71875 56.113281 62.574219 62.878906 61.109375 C 64.132812 60.835938 65.496094 60.144531 65.652344 58.71875 C 65.726562 58.035156 65.472656 57.476562 65.042969 57.042969 C 66.121094 56.324219 66.363281 54.742188 65.625 53.617188 C 65.074219 52.765625 64.257812 52.332031 63.355469 52.109375 C 63.238281 50.832031 62.414062 49.773438 61.269531 49.191406 C 59.695312 48.390625 57.820312 48.578125 56.121094 48.621094 C 55.816406 48.625 55.511719 48.632812 55.210938 48.644531 C 55.167969 48.496094 55.054688 48.359375 54.863281 48.277344 C 51.378906 46.753906 47.597656 46.132812 43.863281 46.464844 C 44.0625 45.652344 43.796875 44.796875 43.183594 44.332031 C 43.878906 43.34375 43.753906 41.980469 42.898438 41.15625 C 42.882812 41.046875 42.84375 40.941406 42.789062 40.847656 C 42.789062 40.816406 42.792969 40.792969 42.789062 40.761719 C 42.707031 39.425781 42.628906 38.09375 42.554688 36.761719 C 45.386719 36.050781 47.972656 34.414062 49.863281 32.09375 C 53.707031 27.398438 54.25 20.578125 51.503906 15.1875 C 49.738281 11.726562 46.632812 9.023438 42.960938 7.753906 C 40.78125 7.003906 38.445312 6.855469 36.160156 6.875 C 34.253906 6.890625 32.351562 7.265625 30.578125 7.964844 C 27.511719 9.160156 24.847656 11.332031 23.09375 14.125 C 19.863281 19.296875 19.90625 26.132812 23.503906 31.109375 C 25.292969 33.589844 27.867188 35.4375 30.773438 36.351562 C 30.84375 38.015625 30.800781 39.667969 30.652344 41.332031 C 30.644531 41.34375 30.644531 41.355469 30.644531 41.375 C 29.988281 42.136719 29.773438 43.277344 30.191406 44.199219 C 29.597656 44.78125 29.109375 45.484375 29.246094 46.363281 C 29.3125 46.785156 29.511719 47.144531 29.785156 47.449219 C 29.382812 47.578125 28.972656 47.714844 28.578125 47.863281 C 26.238281 48.738281 24.171875 50.238281 21.800781 51.007812 C 19.203125 51.855469 16.410156 51.613281 13.730469 51.390625 C 12.808594 51.316406 12.808594 52.765625 13.730469 52.839844 C 16.222656 53.046875 18.761719 53.230469 21.226562 52.667969 Z M 52.621094 31.902344 C 53.828125 32.335938 55.03125 32.769531 56.238281 33.203125 C 56.417969 33.265625 56.628906 33.222656 56.714844 33.039062 C 56.789062 32.875 56.730469 32.628906 56.546875 32.558594 C 55.339844 32.125 54.140625 31.691406 52.933594 31.257812 C 52.746094 31.195312 52.542969 31.238281 52.457031 31.425781 C 52.382812 31.585938 52.4375 31.835938 52.621094 31.902344 Z M 54.949219 20.367188 L 58.984375 20.375 C 59.441406 20.375 59.410156 19.660156 58.953125 19.660156 C 57.609375 19.660156 56.269531 19.660156 54.925781 19.65625 C 54.46875 19.65625 54.492188 20.367188 54.949219 20.367188 Z M 53.167969 6.445312 C 52.035156 7.574219 50.9375 8.746094 49.886719 9.953125 C 49.757812 10.097656 49.738281 10.320312 49.878906 10.460938 C 50.015625 10.59375 50.265625 10.609375 50.394531 10.460938 C 51.445312 9.261719 52.542969 8.089844 53.679688 6.960938 C 54.007812 6.632812 53.5 6.117188 53.167969 6.445312 Z M 36.839844 0.46875 C 36.808594 0.0117188 36.089844 0.00390625 36.117188 0.46875 L 36.363281 4.488281 C 36.394531 4.953125 37.113281 4.953125 37.089844 4.488281 Z M 25.335938 9.03125 C 24.550781 7.921875 23.769531 6.8125 22.984375 5.703125 C 22.871094 5.539062 22.667969 5.464844 22.488281 5.570312 C 22.332031 5.664062 22.246094 5.90625 22.359375 6.066406 L 24.710938 9.394531 C 24.828125 9.558594 25.027344 9.632812 25.203125 9.527344 C 25.367188 9.433594 25.445312 9.191406 25.335938 9.03125 Z M 18.960938 19.617188 C 17.660156 19.625 16.359375 19.628906 15.0625 19.636719 C 14.863281 19.636719 14.683594 19.746094 14.664062 19.957031 C 14.644531 20.136719 14.792969 20.355469 14.988281 20.355469 C 16.292969 20.347656 17.59375 20.34375 18.890625 20.335938 C 19.082031 20.332031 19.261719 20.21875 19.28125 20.007812 C 19.300781 19.828125 19.15625 19.613281 18.960938 19.617188 Z M 21.082031 31.207031 L 17.207031 32.527344 C 16.769531 32.675781 17.027344 33.351562 17.46875 33.199219 C 18.761719 32.765625 20.050781 32.324219 21.34375 31.882812 C 21.78125 31.730469 21.523438 31.058594 21.082031 31.207031 Z M 29.390625 10.078125 C 31.363281 8.992188 33.585938 8.40625 35.832031 8.335938 C 38.027344 8.269531 40.535156 8.359375 42.609375 9.160156 C 43.699219 9.582031 44.730469 10.035156 45.714844 10.691406 C 50.097656 13.625 52.472656 19.152344 51.707031 24.484375 C 50.914062 29.960938 46.871094 34.449219 41.59375 35.496094 C 41.199219 35.578125 41.042969 35.90625 41.074219 36.230469 C 41.167969 37.742188 41.253906 39.246094 41.347656 40.761719 C 41.347656 40.761719 41.347656 40.765625 41.347656 40.765625 C 40.351562 41.03125 39.339844 41.210938 38.324219 41.292969 C 38.207031 37.976562 38.652344 34.660156 39.636719 31.488281 C 40.023438 30.261719 40.480469 29.058594 41.023438 27.890625 C 41.265625 27.898438 41.519531 27.890625 41.773438 27.847656 C 42.554688 27.710938 43.285156 27.296875 43.753906 26.652344 C 44.011719 26.285156 44.222656 25.785156 44.09375 25.332031 C 43.988281 24.949219 43.65625 24.675781 43.269531 24.582031 C 42.34375 24.359375 41.675781 25.070312 41.257812 25.816406 C 41.023438 26.238281 40.800781 26.671875 40.589844 27.113281 C 40.082031 27 39.59375 26.769531 39.199219 26.441406 C 38.753906 26.082031 38.382812 25.640625 38.078125 25.152344 C 38.921875 23.496094 39.320312 21.613281 39.15625 19.761719 C 39.09375 19.054688 38.710938 18 37.855469 17.96875 C 37.386719 17.957031 37.074219 18.335938 36.914062 18.730469 C 36.734375 19.164062 36.613281 19.625 36.523438 20.089844 C 36.210938 21.785156 36.445312 23.621094 37.261719 25.160156 C 36.796875 25.996094 36.203125 26.757812 35.480469 27.367188 C 35.316406 27.5 35.144531 27.632812 34.953125 27.742188 C 34.921875 27.695312 34.890625 27.644531 34.855469 27.601562 C 34.171875 26.691406 33.207031 25.972656 32.070312 25.785156 C 31.902344 25.761719 31.746094 25.804688 31.660156 25.953125 C 31.234375 26.648438 31.449219 27.476562 31.945312 28.070312 C 32.5 28.734375 33.335938 28.972656 34.171875 28.816406 C 34.339844 28.792969 34.507812 28.742188 34.667969 28.6875 C 35.015625 29.34375 35.257812 30.074219 35.40625 30.773438 C 35.875 33.039062 35.925781 35.421875 35.707031 37.710938 C 35.601562 38.90625 35.398438 40.089844 35.121094 41.261719 C 34.125 41.152344 33.125 40.957031 32.148438 40.671875 C 32.261719 39.113281 32.277344 37.554688 32.203125 35.992188 C 32.308594 35.648438 32.191406 35.25 31.746094 35.132812 C 26.398438 33.683594 22.582031 28.910156 22.183594 23.386719 C 21.800781 18.007812 24.660156 12.675781 29.390625 10.078125 Z M 37.609375 41.34375 C 37.019531 41.363281 36.433594 41.355469 35.851562 41.316406 C 36.375 39.054688 36.613281 36.726562 36.523438 34.402344 C 36.480469 33.171875 36.371094 31.945312 36.128906 30.742188 C 35.96875 29.925781 35.726562 29.101562 35.332031 28.355469 C 35.769531 28.097656 36.160156 27.75 36.5 27.398438 C 36.945312 26.925781 37.339844 26.40625 37.683594 25.851562 C 38.332031 26.769531 39.230469 27.5 40.28125 27.78125 C 40.171875 28.027344 40.058594 28.277344 39.953125 28.53125 C 38.375 32.273438 37.558594 36.351562 37.582031 40.417969 C 37.589844 40.730469 37.59375 41.03125 37.609375 41.34375 Z M 31.964844 42.125 C 35.1875 43.023438 38.585938 43.027344 41.808594 42.136719 C 42.136719 42.398438 42.316406 42.789062 42.164062 43.234375 C 41.957031 43.796875 41.289062 44.046875 40.757812 44.1875 C 39.425781 44.558594 37.984375 44.632812 36.613281 44.652344 C 35.292969 44.671875 33.808594 44.695312 32.539062 44.3125 C 32.039062 44.15625 31.53125 43.902344 31.425781 43.339844 C 31.34375 42.84375 31.574219 42.390625 31.964844 42.125 Z M 42.347656 46.382812 C 42.15625 46.6875 41.785156 46.871094 41.464844 47.003906 C 40.976562 47.195312 40.425781 47.273438 39.917969 47.375 C 38.636719 47.609375 37.347656 47.765625 36.046875 47.769531 C 34.816406 47.777344 33.589844 47.640625 32.410156 47.28125 C 31.902344 47.125 31.257812 46.941406 30.894531 46.523438 C 30.484375 46.058594 30.789062 45.632812 31.152344 45.273438 C 32.625 46.246094 35.027344 46.121094 36.613281 46.101562 C 37.824219 46.085938 39.039062 45.972656 40.238281 45.773438 C 40.734375 45.6875 41.242188 45.578125 41.722656 45.390625 C 41.828125 45.429688 41.953125 45.441406 42.089844 45.414062 C 42.714844 45.304688 42.484375 46.171875 42.347656 46.382812 Z M 36.753906 49.976562 C 35.671875 50.003906 33.449219 50.039062 32.855469 48.921875 C 34.328125 49.253906 35.917969 49.269531 37.347656 49.164062 C 38.5 49.078125 39.648438 48.90625 40.777344 48.667969 C 40.882812 48.652344 40.992188 48.625 41.097656 48.601562 C 40.746094 49.605469 37.359375 49.957031 36.753906 49.976562 Z M 42.824219 26.601562 C 42.398438 26.96875 41.890625 27.140625 41.363281 27.171875 C 41.464844 26.976562 41.5625 26.777344 41.667969 26.585938 C 41.929688 26.082031 42.316406 25.164062 43.03125 25.265625 C 43.828125 25.382812 43.152344 26.316406 42.824219 26.601562 Z M 37.148438 22.328125 C 37.0625 21.5 37.113281 20.671875 37.3125 19.867188 C 37.359375 19.667969 37.414062 19.46875 37.476562 19.277344 C 37.535156 19.117188 37.582031 18.898438 37.699219 18.769531 C 37.875 18.582031 38.058594 18.800781 38.164062 18.964844 C 38.355469 19.25 38.425781 19.566406 38.449219 19.902344 C 38.472656 20.292969 38.480469 20.683594 38.457031 21.066406 C 38.417969 21.863281 38.265625 22.640625 38.023438 23.398438 C 37.921875 23.714844 37.804688 24.035156 37.664062 24.347656 C 37.390625 23.703125 37.21875 23.007812 37.148438 22.328125 Z M 33.425781 28.132812 C 32.855469 28.058594 32.328125 27.582031 32.179688 27.03125 C 32.136719 26.863281 32.144531 26.703125 32.1875 26.546875 C 33.078125 26.777344 33.765625 27.335938 34.277344 28.054688 C 34 28.140625 33.714844 28.175781 33.425781 28.132812 Z M 60.8125 26.558594 C 61.199219 26.558594 61.589844 26.554688 61.980469 26.554688 C 61.703125 26.828125 61.429688 27.117188 61.21875 27.457031 C 61.113281 27.621094 61.183594 27.855469 61.347656 27.949219 C 61.523438 28.054688 61.738281 27.984375 61.84375 27.816406 C 62.035156 27.515625 62.289062 27.246094 62.554688 27 C 62.554688 27.53125 62.554688 28.070312 62.550781 28.613281 C 62.542969 29.078125 63.269531 29.078125 63.273438 28.605469 C 63.28125 28.097656 63.28125 27.589844 63.273438 27.082031 C 63.3125 27.117188 63.347656 27.15625 63.386719 27.191406 C 63.601562 27.414062 63.824219 27.644531 64.101562 27.800781 C 64.511719 28.027344 64.871094 27.402344 64.46875 27.171875 C 64.234375 27.042969 64.046875 26.839844 63.855469 26.640625 C 63.820312 26.601562 63.78125 26.566406 63.746094 26.523438 C 64.160156 26.515625 64.574219 26.511719 64.988281 26.496094 C 65.453125 26.484375 65.453125 25.761719 64.980469 25.773438 C 64.597656 25.785156 64.207031 25.792969 63.820312 25.796875 C 64.011719 25.625 64.195312 25.445312 64.382812 25.265625 C 64.523438 25.128906 64.519531 24.886719 64.382812 24.75 C 64.238281 24.613281 64.015625 24.621094 63.875 24.757812 C 63.664062 24.949219 63.460938 25.148438 63.253906 25.339844 C 63.242188 24.785156 63.230469 24.234375 63.207031 23.691406 C 63.1875 23.226562 62.46875 23.226562 62.488281 23.691406 C 62.507812 24.199219 62.519531 24.710938 62.53125 25.222656 C 62.332031 24.996094 62.140625 24.773438 61.949219 24.550781 C 61.824219 24.402344 61.566406 24.421875 61.441406 24.550781 C 61.292969 24.699219 61.316406 24.910156 61.441406 25.058594 C 61.660156 25.320312 61.882812 25.574219 62.109375 25.828125 C 61.675781 25.828125 61.238281 25.835938 60.804688 25.839844 C 60.339844 25.839844 60.347656 26.558594 60.8125 26.558594 Z M 18.136719 41.292969 C 18.527344 41.292969 18.917969 41.289062 19.308594 41.28125 C 19.027344 41.558594 18.761719 41.851562 18.546875 42.1875 C 18.441406 42.351562 18.515625 42.589844 18.675781 42.683594 C 18.847656 42.78125 19.066406 42.710938 19.171875 42.550781 C 19.363281 42.246094 19.617188 41.980469 19.882812 41.726562 C 19.882812 42.265625 19.882812 42.804688 19.875 43.339844 C 19.871094 43.804688 20.59375 43.804688 20.601562 43.339844 C 20.605469 42.832031 20.605469 42.324219 20.605469 41.8125 C 20.636719 41.84375 20.675781 41.886719 20.710938 41.917969 C 20.933594 42.144531 21.15625 42.371094 21.429688 42.527344 C 21.839844 42.757812 22.203125 42.128906 21.792969 41.902344 C 21.558594 41.769531 21.375 41.566406 21.183594 41.375 C 21.144531 41.335938 21.109375 41.292969 21.070312 41.257812 C 21.484375 41.242188 21.898438 41.238281 22.316406 41.226562 C 22.777344 41.210938 22.777344 40.492188 22.316406 40.507812 C 21.925781 40.511719 21.535156 40.519531 21.144531 40.53125 C 21.335938 40.351562 21.523438 40.171875 21.714844 39.992188 C 21.855469 39.863281 21.84375 39.621094 21.707031 39.484375 C 21.570312 39.339844 21.34375 39.347656 21.199219 39.484375 C 20.996094 39.683594 20.785156 39.875 20.582031 40.074219 C 20.570312 39.519531 20.558594 38.96875 20.539062 38.417969 C 20.519531 37.953125 19.796875 37.953125 19.8125 38.417969 C 19.832031 38.933594 19.84375 39.441406 19.859375 39.953125 C 19.660156 39.730469 19.46875 39.507812 19.277344 39.277344 C 19.152344 39.128906 18.898438 39.148438 18.769531 39.277344 C 18.621094 39.425781 18.644531 39.644531 18.769531 39.792969 C 18.984375 40.054688 19.207031 40.308594 19.4375 40.554688 C 19.003906 40.5625 18.570312 40.566406 18.136719 40.566406 C 17.671875 40.566406 17.671875 41.292969 18.136719 41.292969 Z M 6.792969 27.78125 C 7.832031 27.792969 8.871094 27.785156 9.90625 27.773438 C 9.347656 28.328125 8.792969 28.878906 8.222656 29.421875 C 7.882812 29.746094 8.394531 30.253906 8.734375 29.933594 C 9.421875 29.273438 10.101562 28.605469 10.773438 27.929688 C 10.789062 27.9375 10.804688 27.949219 10.820312 27.953125 C 10.777344 29.410156 10.703125 30.867188 10.597656 32.332031 C 10.566406 32.789062 11.285156 32.789062 11.324219 32.324219 C 11.414062 31.042969 11.484375 29.753906 11.527344 28.460938 C 12.039062 28.933594 12.566406 29.398438 13.105469 29.851562 C 13.457031 30.148438 13.972656 29.632812 13.613281 29.335938 C 12.992188 28.816406 12.386719 28.28125 11.800781 27.730469 C 12.8125 27.699219 13.828125 27.65625 14.84375 27.59375 C 15.300781 27.570312 15.300781 26.84375 14.839844 26.875 C 13.796875 26.9375 12.753906 26.976562 11.710938 27.011719 C 11.710938 27 11.707031 26.992188 11.699219 26.980469 C 12.300781 26.367188 12.894531 25.746094 13.476562 25.117188 C 13.792969 24.773438 13.285156 24.265625 12.960938 24.605469 C 12.511719 25.097656 12.054688 25.582031 11.589844 26.058594 C 11.609375 24.773438 11.609375 23.492188 11.582031 22.207031 C 11.570312 21.742188 10.851562 21.75 10.859375 22.214844 C 10.890625 23.664062 10.890625 25.117188 10.859375 26.570312 C 10.789062 26.589844 10.734375 26.617188 10.679688 26.648438 C 10.054688 26.019531 9.449219 25.382812 8.851562 24.71875 C 8.542969 24.371094 8.035156 24.886719 8.347656 25.234375 C 8.898438 25.851562 9.464844 26.460938 10.054688 27.050781 C 8.964844 27.0625 7.882812 27.066406 6.792969 27.054688 C 6.328125 27.050781 6.328125 27.773438 6.792969 27.78125 Z M 60.066406 7.382812 C 61.109375 7.402344 62.140625 7.394531 63.179688 7.375 C 62.625 7.933594 62.0625 8.484375 61.496094 9.03125 C 61.15625 9.351562 61.671875 9.859375 62.003906 9.539062 C 62.699219 8.882812 63.375 8.210938 64.046875 7.53125 C 64.066406 7.542969 64.078125 7.550781 64.097656 7.554688 C 64.054688 9.019531 63.980469 10.476562 63.875 11.929688 C 63.835938 12.394531 64.5625 12.394531 64.59375 11.929688 C 64.683594 10.640625 64.753906 9.359375 64.804688 8.070312 C 65.316406 8.539062 65.84375 9.003906 66.375 9.457031 C 66.734375 9.753906 67.242188 9.242188 66.886719 8.945312 C 66.269531 8.421875 65.664062 7.882812 65.070312 7.332031 C 66.082031 7.300781 67.097656 7.265625 68.113281 7.203125 C 68.578125 7.175781 68.578125 6.453125 68.113281 6.484375 C 67.074219 6.539062 66.027344 6.582031 64.988281 6.613281 C 64.980469 6.605469 64.976562 6.59375 64.976562 6.589844 C 65.570312 5.976562 66.164062 5.355469 66.753906 4.722656 C 67.066406 4.382812 66.554688 3.875 66.238281 4.214844 C 65.785156 4.703125 65.328125 5.1875 64.863281 5.664062 C 64.882812 4.382812 64.882812 3.097656 64.859375 1.816406 C 64.847656 1.351562 64.121094 1.351562 64.132812 1.820312 C 64.164062 3.273438 64.160156 4.722656 64.132812 6.179688 C 64.066406 6.191406 64.003906 6.222656 63.953125 6.253906 C 63.328125 5.628906 62.71875 4.988281 62.128906 4.324219 C 61.820312 3.980469 61.3125 4.492188 61.621094 4.839844 C 62.171875 5.460938 62.742188 6.0625 63.328125 6.652344 C 62.242188 6.667969 61.152344 6.675781 60.066406 6.664062 C 59.597656 6.65625 59.605469 7.375 60.066406 7.382812 Z M 60.066406 7.382812 " fill-opacity="1" fill-rule="nonzero"/></g></svg>