<svg xmlns="http://www.w3.org/2000/svg" xmlns:xlink="http://www.w3.org/1999/xlink" width="100" zoomAndPan="magnify" viewBox="0 0 75 74.999997" height="100" preserveAspectRatio="xMidYMid meet" version="1.0"><defs><clipPath id="9398dd2ebb"><path d="M 0 2.8125 L 75 2.8125 L 75 72.09375 L 0 72.09375 Z M 0 2.8125 " clip-rule="nonzero"/></clipPath></defs><g clip-path="url(#9398dd2ebb)"><path fill="#040606" d="M 3.75 64.605469 L 3.75 10.304688 C 3.75 9.308594 4.140625 8.359375 4.847656 7.652344 C 5.554688 6.953125 6.503906 6.554688 7.496094 6.554688 L 67.503906 6.554688 C 68.496094 6.554688 69.445312 6.953125 70.152344 7.652344 C 70.859375 8.359375 71.25 9.308594 71.25 10.304688 L 71.25 64.605469 C 71.25 65.597656 70.859375 66.554688 70.152344 67.25 C 69.445312 67.957031 68.496094 68.347656 67.503906 68.347656 L 7.496094 68.347656 C 6.503906 68.347656 5.554688 67.957031 4.847656 67.25 C 4.140625 66.554688 3.75 65.597656 3.75 64.605469 Z M 67.496094 72.09375 C 69.492188 72.09375 71.398438 71.308594 72.800781 69.898438 C 74.207031 68.496094 75 66.59375 75 64.605469 L 75 10.304688 C 75 8.316406 74.207031 6.410156 72.800781 5.007812 C 71.398438 3.601562 69.492188 2.8125 67.496094 2.8125 L 7.496094 2.8125 C 5.511719 2.8125 3.601562 3.601562 2.199219 5.007812 C 0.792969 6.410156 0 8.316406 0 10.304688 L 0 64.605469 C 0 66.59375 0.792969 68.496094 2.199219 69.898438 C 3.601562 71.308594 5.511719 72.09375 7.496094 72.09375 L 67.496094 72.09375 " fill-opacity="1" fill-rule="nonzero"/></g><path fill="#040606" d="M 13.125 25.28125 C 13.125 24.25 13.960938 23.414062 15 23.414062 L 18.75 23.414062 C 19.25 23.414062 19.722656 23.605469 20.074219 23.957031 C 20.429688 24.308594 20.628906 24.78125 20.628906 25.28125 L 20.628906 29.023438 C 20.628906 29.523438 20.429688 30 20.074219 30.347656 C 19.722656 30.699219 19.25 30.898438 18.75 30.898438 L 15 30.898438 C 13.960938 30.898438 13.125 30.0625 13.125 29.023438 Z M 15 34.644531 L 15 60.863281 C 15 61.890625 15.839844 62.730469 16.871094 62.730469 C 17.910156 62.730469 18.75 61.890625 18.75 60.863281 L 18.75 34.644531 C 20.242188 34.644531 21.671875 34.050781 22.726562 33 C 23.785156 31.945312 24.375 30.519531 24.375 29.023438 L 24.375 25.28125 C 24.375 23.792969 23.785156 22.363281 22.726562 21.3125 C 21.671875 20.253906 20.242188 19.660156 18.75 19.660156 L 18.75 14.050781 C 18.75 13.011719 17.910156 12.175781 16.871094 12.175781 C 15.839844 12.175781 15 13.011719 15 14.050781 L 15 19.660156 C 13.511719 19.660156 12.078125 20.253906 11.019531 21.3125 C 9.96875 22.363281 9.375 23.792969 9.375 25.28125 L 9.375 29.023438 C 9.375 30.519531 9.96875 31.945312 11.019531 33 C 12.078125 34.050781 13.511719 34.644531 15 34.644531 " fill-opacity="1" fill-rule="nonzero"/><path fill="#040606" d="M 33.75 34.644531 C 33.75 33.613281 34.589844 32.773438 35.621094 32.773438 L 39.371094 32.773438 C 39.871094 32.773438 40.351562 32.96875 40.703125 33.320312 C 41.054688 33.671875 41.25 34.152344 41.25 34.644531 L 41.25 38.394531 C 41.25 38.886719 41.054688 39.363281 40.703125 39.714844 C 40.351562 40.070312 39.871094 40.261719 39.371094 40.261719 L 35.621094 40.261719 C 34.589844 40.261719 33.75 39.425781 33.75 38.394531 Z M 35.621094 44.003906 L 35.621094 60.863281 C 35.621094 61.890625 36.46875 62.730469 37.5 62.730469 C 38.53125 62.730469 39.371094 61.890625 39.371094 60.863281 L 39.371094 44.003906 C 40.863281 44.003906 42.300781 43.414062 43.351562 42.363281 C 44.40625 41.304688 45.003906 39.882812 45.003906 38.394531 L 45.003906 34.644531 C 45.003906 33.152344 44.40625 31.722656 43.351562 30.671875 C 42.300781 29.617188 40.863281 29.03125 39.371094 29.03125 L 39.371094 14.050781 C 39.371094 13.011719 38.53125 12.175781 37.5 12.175781 C 36.46875 12.175781 35.621094 13.011719 35.621094 14.050781 L 35.621094 29.03125 C 34.128906 29.03125 32.699219 29.617188 31.648438 30.671875 C 30.59375 31.722656 29.996094 33.152344 29.996094 34.644531 L 29.996094 38.394531 C 29.996094 39.882812 30.59375 41.304688 31.648438 42.363281 C 32.699219 43.414062 34.128906 44.003906 35.621094 44.003906 " fill-opacity="1" fill-rule="nonzero"/><path fill="#040606" d="M 54.378906 45.878906 C 54.378906 44.84375 55.21875 44.003906 56.25 44.003906 L 60 44.003906 C 60.496094 44.003906 60.976562 44.203125 61.324219 44.558594 C 61.675781 44.910156 61.875 45.382812 61.875 45.878906 L 61.875 49.625 C 61.875 50.121094 61.675781 50.59375 61.324219 50.949219 C 60.976562 51.300781 60.496094 51.5 60 51.5 L 56.25 51.5 C 55.21875 51.5 54.378906 50.660156 54.378906 49.625 Z M 56.25 55.242188 L 56.25 60.863281 C 56.25 61.890625 57.089844 62.730469 58.121094 62.730469 C 59.160156 62.730469 60 61.890625 60 60.863281 L 60 55.242188 C 61.488281 55.242188 62.921875 54.652344 63.972656 53.601562 C 65.03125 52.542969 65.625 51.113281 65.625 49.625 L 65.625 45.878906 C 65.625 44.390625 65.03125 42.960938 63.972656 41.910156 C 62.921875 40.855469 61.488281 40.261719 60 40.261719 L 60 14.050781 C 60 13.011719 59.160156 12.175781 58.121094 12.175781 C 57.089844 12.175781 56.25 13.011719 56.25 14.050781 L 56.25 40.261719 C 54.757812 40.261719 53.328125 40.855469 52.269531 41.910156 C 51.214844 42.960938 50.625 44.390625 50.625 45.878906 L 50.625 49.625 C 50.625 51.113281 51.214844 52.542969 52.269531 53.601562 C 53.328125 54.652344 54.757812 55.242188 56.25 55.242188 " fill-opacity="1" fill-rule="nonzero"/></svg>