<svg xmlns="http://www.w3.org/2000/svg" xmlns:xlink="http://www.w3.org/1999/xlink" width="100" zoomAndPan="magnify" viewBox="0 0 75 74.999997" height="100" preserveAspectRatio="xMidYMid meet" version="1.0"><path fill="#000000" d="M 7.359375 37.5 C 7.359375 33.328125 8.203125 29.289062 9.859375 25.5 L 7.566406 24.5 C 5.769531 28.609375 4.859375 32.980469 4.859375 37.5 C 4.859375 45.957031 8.09375 53.96875 13.96875 60.054688 L 15.769531 58.320312 C 10.347656 52.699219 7.359375 45.308594 7.359375 37.5 " fill-opacity="1" fill-rule="nonzero"/><path fill="#000000" d="M 69.613281 22.90625 L 68.320312 21.617188 L 66.550781 23.382812 L 67.84375 24.675781 C 65.988281 26.191406 63.691406 27.1875 61.179688 27.4375 L 61.179688 25 L 58.675781 25 L 58.675781 27.4375 C 56.160156 27.1875 53.863281 26.191406 52.011719 24.675781 L 53.300781 23.382812 L 51.53125 21.617188 L 50.242188 22.90625 C 48.722656 21.054688 47.722656 18.761719 47.472656 16.25 L 49.914062 16.25 L 49.914062 13.75 L 47.472656 13.75 C 47.722656 11.238281 48.722656 8.945312 50.242188 7.09375 L 51.53125 8.382812 L 53.300781 6.617188 L 52.011719 5.324219 C 53.863281 3.808594 56.160156 2.8125 58.675781 2.5625 L 58.675781 5 L 61.179688 5 L 61.179688 2.5625 C 63.691406 2.8125 65.988281 3.808594 67.84375 5.324219 L 66.550781 6.617188 L 68.320312 8.382812 L 69.613281 7.09375 C 71.128906 8.945312 72.128906 11.238281 72.378906 13.75 L 69.9375 13.75 L 69.9375 16.25 L 72.378906 16.25 C 72.128906 18.761719 71.128906 21.054688 69.613281 22.90625 Z M 59.925781 0 C 51.644531 0 44.90625 6.730469 44.90625 15 C 44.90625 23.269531 51.644531 30 59.925781 30 C 68.207031 30 74.945312 23.269531 74.945312 15 C 74.945312 6.730469 68.207031 0 59.925781 0 " fill-opacity="1" fill-rule="nonzero"/><path fill="#000000" d="M 58.675781 14.480469 L 55.285156 17.867188 L 57.058594 19.632812 L 60.8125 15.882812 C 61.046875 15.648438 61.179688 15.332031 61.179688 15 L 61.179688 7.5 L 58.675781 7.5 L 58.675781 14.480469 " fill-opacity="1" fill-rule="nonzero"/><path fill="#000000" d="M 3.351562 18.886719 L 2.65625 12.636719 C 2.617188 12.28125 2.726562 11.933594 2.96875 11.667969 C 3.207031 11.398438 3.539062 11.25 3.898438 11.25 L 7.359375 11.25 C 7.777344 11.25 8.164062 11.042969 8.398438 10.699219 C 8.628906 10.355469 8.675781 9.921875 8.523438 9.535156 L 7.390625 6.714844 C 7.234375 6.324219 7.28125 5.898438 7.519531 5.550781 C 7.753906 5.199219 8.132812 5 8.554688 5 L 9.15625 5 L 12.546875 10.644531 C 12.773438 11.019531 13.179688 11.25 13.617188 11.25 L 17.375 11.25 L 17.375 17.5 L 13.617188 17.5 C 13.285156 17.5 12.96875 17.632812 12.734375 17.867188 L 10.964844 19.632812 C 10.726562 19.871094 10.414062 20 10.078125 20 L 4.59375 20 C 3.957031 20 3.421875 19.523438 3.351562 18.886719 Z M 19.875 10 L 24.882812 10 L 24.882812 20 L 19.875 20 Z M 12.734375 21.402344 L 14.136719 20 L 17.375 20 L 17.375 21.25 C 17.375 21.941406 17.933594 22.5 18.625 22.5 L 26.132812 22.5 C 26.824219 22.5 27.386719 21.941406 27.386719 21.25 L 27.386719 8.75 C 27.386719 8.058594 26.824219 7.5 26.132812 7.5 L 18.625 7.5 C 17.933594 7.5 17.375 8.058594 17.375 8.75 L 14.328125 8.75 L 10.9375 3.105469 C 10.710938 2.730469 10.304688 2.5 9.863281 2.5 L 8.554688 2.5 C 7.308594 2.5 6.144531 3.117188 5.445312 4.148438 C 4.746094 5.179688 4.605469 6.484375 5.070312 7.644531 L 5.511719 8.75 L 3.898438 8.75 C 2.832031 8.75 1.8125 9.207031 1.101562 10 C 0.390625 10.792969 0.0507812 11.855469 0.167969 12.914062 L 0.863281 19.164062 C 1.074219 21.066406 2.679688 22.5 4.59375 22.5 L 10.078125 22.5 C 11.082031 22.5 12.023438 22.109375 12.734375 21.402344 " fill-opacity="1" fill-rule="nonzero"/><path fill="#000000" d="M 32.390625 55 C 31.699219 55 31.140625 55.558594 31.140625 56.25 C 31.140625 59.527344 33.679688 62.226562 36.898438 62.480469 L 34.542969 64.832031 L 22.648438 61.179688 C 21.652344 59.726562 21.128906 58.035156 21.128906 56.25 C 21.128906 51.425781 25.058594 47.5 29.890625 47.5 C 34.292969 47.5 37.949219 50.765625 38.558594 55 Z M 42.039062 55.367188 C 41.804688 55.132812 41.484375 55 41.152344 55 L 41.082031 55 C 40.457031 49.382812 35.675781 45 29.890625 45 C 23.679688 45 18.625 50.046875 18.625 56.25 C 18.625 57.695312 18.90625 59.121094 19.441406 60.449219 C 18.296875 60.527344 17.207031 61.121094 16.546875 62.109375 L 15.082031 64.304688 C 14.871094 64.617188 14.816406 65.007812 14.925781 65.363281 C 15.035156 65.722656 15.296875 66.011719 15.644531 66.15625 L 36.921875 74.90625 C 37.074219 74.96875 37.238281 75 37.398438 75 C 37.589844 75 37.78125 74.957031 37.957031 74.867188 L 45.203125 71.25 L 57.421875 71.25 L 57.421875 68.75 L 44.90625 68.75 C 44.714844 68.75 44.519531 68.796875 44.347656 68.882812 L 37.347656 72.378906 L 18.011719 64.425781 L 18.632812 63.496094 C 18.9375 63.039062 19.515625 62.832031 20.039062 62.992188 L 34.527344 67.445312 C 34.96875 67.582031 35.453125 67.460938 35.78125 67.132812 L 40.785156 62.132812 C 41.144531 61.777344 41.25 61.238281 41.058594 60.769531 C 40.863281 60.304688 40.40625 60 39.902344 60 L 37.398438 60 C 35.765625 60 34.375 58.953125 33.859375 57.5 L 40.636719 57.5 L 44.023438 60.882812 C 44.257812 61.117188 44.574219 61.25 44.90625 61.25 L 57.421875 61.25 L 57.421875 58.75 L 45.425781 58.75 L 42.039062 55.367188 " fill-opacity="1" fill-rule="nonzero"/><path fill="#000000" d="M 31.058594 31.0625 L 31.894531 29.042969 C 32.046875 28.671875 32.015625 28.25 31.804688 27.910156 L 30.964844 26.539062 L 31.429688 26.074219 L 32.800781 26.914062 C 33.144531 27.125 33.566406 27.15625 33.9375 27.003906 L 35.957031 26.167969 C 36.328125 26.011719 36.601562 25.691406 36.695312 25.300781 L 37.070312 23.75 L 37.726562 23.75 L 38.101562 25.300781 C 38.195312 25.691406 38.46875 26.011719 38.839844 26.167969 L 40.859375 27.003906 C 41.230469 27.15625 41.652344 27.125 41.992188 26.914062 L 43.367188 26.074219 L 43.832031 26.539062 L 42.992188 27.910156 C 42.78125 28.25 42.75 28.671875 42.902344 29.042969 L 43.738281 31.0625 C 43.894531 31.433594 44.214844 31.707031 44.605469 31.800781 L 46.160156 32.171875 L 46.160156 32.828125 L 44.605469 33.199219 C 44.214844 33.292969 43.894531 33.566406 43.738281 33.9375 L 42.902344 35.957031 C 42.75 36.328125 42.78125 36.75 42.992188 37.089844 L 43.832031 38.460938 L 43.367188 38.925781 L 41.992188 38.085938 C 41.652344 37.875 41.230469 37.84375 40.859375 37.996094 L 38.839844 38.832031 C 38.46875 38.988281 38.195312 39.308594 38.101562 39.695312 L 37.726562 41.25 L 37.070312 41.25 L 36.695312 39.695312 C 36.601562 39.308594 36.328125 38.988281 35.957031 38.832031 L 33.9375 37.996094 C 33.566406 37.84375 33.144531 37.875 32.800781 38.085938 L 31.429688 38.925781 L 30.964844 38.460938 L 31.804688 37.089844 C 32.015625 36.75 32.046875 36.328125 31.894531 35.957031 L 31.058594 33.9375 C 30.902344 33.566406 30.582031 33.292969 30.191406 33.199219 L 28.636719 32.828125 L 28.636719 32.171875 L 30.191406 31.800781 C 30.582031 31.707031 30.902344 31.433594 31.058594 31.0625 Z M 29.339844 28.671875 L 28.988281 29.515625 L 27.09375 29.96875 C 26.53125 30.105469 26.132812 30.609375 26.132812 31.1875 L 26.132812 33.8125 C 26.132812 34.390625 26.53125 34.894531 27.09375 35.03125 L 28.988281 35.484375 L 29.339844 36.328125 L 28.316406 37.996094 C 28.011719 38.488281 28.089844 39.121094 28.496094 39.53125 L 30.359375 41.390625 C 30.769531 41.796875 31.402344 41.875 31.898438 41.570312 L 33.566406 40.550781 L 34.410156 40.898438 L 34.867188 42.792969 C 35 43.355469 35.503906 43.75 36.082031 43.75 L 38.714844 43.75 C 39.292969 43.75 39.796875 43.355469 39.929688 42.792969 L 40.386719 40.898438 L 41.230469 40.550781 L 42.898438 41.570312 C 43.394531 41.875 44.027344 41.796875 44.4375 41.390625 L 46.300781 39.53125 C 46.707031 39.121094 46.785156 38.488281 46.480469 37.996094 L 45.457031 36.328125 L 45.808594 35.484375 L 47.703125 35.03125 C 48.265625 34.894531 48.664062 34.390625 48.664062 33.8125 L 48.664062 31.1875 C 48.664062 30.609375 48.265625 30.105469 47.703125 29.96875 L 45.808594 29.515625 L 45.457031 28.671875 L 46.480469 27.003906 C 46.785156 26.511719 46.707031 25.878906 46.300781 25.46875 L 44.4375 23.609375 C 44.027344 23.203125 43.394531 23.125 42.898438 23.429688 L 41.230469 24.449219 L 40.386719 24.101562 L 39.929688 22.207031 C 39.796875 21.644531 39.292969 21.25 38.714844 21.25 L 36.082031 21.25 C 35.503906 21.25 35 21.644531 34.867188 22.207031 L 34.410156 24.101562 L 33.566406 24.449219 L 31.898438 23.429688 C 31.402344 23.125 30.769531 23.203125 30.359375 23.609375 L 28.496094 25.46875 C 28.089844 25.878906 28.011719 26.511719 28.316406 27.003906 L 29.339844 28.671875 " fill-opacity="1" fill-rule="nonzero"/><path fill="#000000" d="M 37.398438 31.25 C 38.089844 31.25 38.648438 31.8125 38.648438 32.5 C 38.648438 33.1875 38.089844 33.75 37.398438 33.75 C 36.707031 33.75 36.148438 33.1875 36.148438 32.5 C 36.148438 31.8125 36.707031 31.25 37.398438 31.25 Z M 37.398438 36.25 C 39.46875 36.25 41.152344 34.566406 41.152344 32.5 C 41.152344 30.433594 39.46875 28.75 37.398438 28.75 C 35.328125 28.75 33.644531 30.433594 33.644531 32.5 C 33.644531 34.566406 35.328125 36.25 37.398438 36.25 " fill-opacity="1" fill-rule="nonzero"/><path fill="#000000" d="M 66.835938 31.5 C 67.234375 33.460938 67.4375 35.480469 67.4375 37.5 C 67.4375 45.09375 64.589844 52.335938 59.421875 57.898438 L 61.257812 59.601562 C 66.855469 53.574219 69.9375 45.726562 69.9375 37.5 C 69.9375 35.3125 69.71875 33.125 69.289062 31 L 66.835938 31.5 " fill-opacity="1" fill-rule="nonzero"/><path fill="#000000" d="M 37.398438 7.5 C 39.421875 7.5 41.441406 7.703125 43.40625 8.101562 L 43.90625 5.648438 C 41.777344 5.21875 39.589844 5 37.398438 5 C 34.757812 5 32.128906 5.316406 29.589844 5.941406 L 30.1875 8.371094 C 32.535156 7.792969 34.960938 7.5 37.398438 7.5 " fill-opacity="1" fill-rule="nonzero"/><path fill="#000000" d="M 15.058594 23.664062 C 12.480469 27.8125 11.117188 32.59375 11.117188 37.5 C 11.117188 42.40625 12.480469 47.1875 15.058594 51.335938 L 17.183594 50.015625 C 14.851562 46.265625 13.617188 41.9375 13.617188 37.5 C 13.617188 33.0625 14.851562 28.734375 17.183594 24.984375 L 15.058594 23.664062 " fill-opacity="1" fill-rule="nonzero"/><path fill="#000000" d="M 55.796875 56.246094 C 60.882812 51.269531 63.679688 44.609375 63.679688 37.5 C 63.679688 35.734375 63.503906 33.96875 63.15625 32.25 L 60.703125 32.75 C 61.019531 34.300781 61.179688 35.898438 61.179688 37.5 C 61.179688 43.933594 58.644531 49.957031 54.042969 54.460938 L 55.796875 56.246094 " fill-opacity="1" fill-rule="nonzero"/><path fill="#000000" d="M 37.398438 13.75 C 39 13.75 40.601562 13.910156 42.15625 14.226562 L 42.652344 11.773438 C 40.933594 11.425781 39.167969 11.25 37.398438 11.25 C 34.707031 11.25 32.054688 11.65625 29.515625 12.453125 L 30.265625 14.835938 C 32.5625 14.117188 34.964844 13.75 37.398438 13.75 " fill-opacity="1" fill-rule="nonzero"/><path fill="#000000" d="M 23.632812 56.25 C 23.632812 57.773438 24.1875 59.242188 25.195312 60.382812 L 27.074219 58.730469 C 26.46875 58.046875 26.132812 57.164062 26.132812 56.25 C 26.132812 54.183594 27.820312 52.5 29.890625 52.5 C 30.550781 52.5 31.199219 52.671875 31.765625 53 L 33.019531 50.835938 C 32.070312 50.289062 30.988281 50 29.890625 50 C 26.4375 50 23.632812 52.804688 23.632812 56.25 " fill-opacity="1" fill-rule="nonzero"/></svg>